<svg width="80" height="80" viewBox="0 0 80 80" fill="none" xmlns="http://www.w3.org/2000/svg">
<path d="M52.8506 37.3252C52.4192 36.5777 51.4636 36.3218 50.7163 36.7533C49.969 37.1847 49.713 38.1403 50.1445 38.8876L56.537 49.9596C56.8291 50.4655 56.9066 51.055 56.7554 51.6194C56.6041 52.1837 56.2423 52.6554 55.7362 52.9476C55.2302 53.2399 54.6407 53.3173 54.0765 53.166C53.5123 53.0148 53.0406 52.6531 52.7484 52.1472L33.374 18.5899C33.082 18.084 33.0045 17.4947 33.1557 16.9305C33.307 16.3661 33.6688 15.8945 34.1749 15.6023C34.681 15.3101 35.2703 15.2326 35.8348 15.3839C36.3992 15.5351 36.8708 15.897 37.163 16.403L43.1135 26.7096C43.5449 27.4569 44.5003 27.7129 45.2477 27.2815C45.995 26.8501 46.2511 25.8945 45.8196 25.1472L39.8691 14.8406C38.4047 12.304 35.1494 11.4316 32.6125 12.8962C31.3836 13.6057 30.5046 14.7512 30.1375 16.1218C29.9344 16.88 29.902 17.6569 30.0331 18.4078L10.3273 42.3604L5.1604 45.3435C2.77506 46.7206 1.06874 48.9444 0.355815 51.6048C-0.357115 54.2653 0.00880268 57.0442 1.38607 59.4297C2.76318 61.8152 4.98697 63.5214 7.64745 64.2343C8.53615 64.4724 9.43735 64.5901 10.3332 64.5901C10.9804 64.5901 11.6244 64.5277 12.2583 64.4057L26.0763 78.3481C27.1495 79.431 28.5833 79.9953 30.0329 79.9953C30.9857 79.9953 31.9452 79.7513 32.8129 79.2502C34.3194 78.3806 35.3159 76.8928 35.5469 75.1687C35.7778 73.4446 35.208 71.747 33.9834 70.5115L31.7525 68.2605L33.2832 67.3766C34.5443 66.6487 35.3784 65.4035 35.572 63.9604C35.7656 62.5172 35.2889 61.096 34.2641 60.0614L32.4723 58.2526L51.2355 55.1315C51.8203 55.6206 52.5092 55.981 53.2676 56.1841C53.7252 56.3068 54.1898 56.3676 54.6511 56.3676C55.5717 56.3676 56.4801 56.126 57.2986 55.6535C58.5275 54.9442 59.4065 53.7986 59.7737 52.4279C60.1408 51.0572 59.9526 49.6256 59.2431 48.3969L52.8506 37.3252ZM4.09217 57.8673C2.11072 54.4353 3.29081 50.0312 6.72281 48.0496L10.7821 45.7059L17.9692 58.1545L13.9082 60.499C10.4765 62.4793 6.07347 61.2988 4.09217 57.8673ZM32.4498 74.7539C32.3486 75.5103 31.9114 76.1627 31.2507 76.5441C30.2909 77.0986 29.076 76.9353 28.2958 76.1485L15.4691 63.2062L19.8416 60.6817L31.7641 72.7112C32.3011 73.253 32.5511 73.9977 32.4498 74.7539ZM32.0441 62.2605C32.3817 62.6014 32.5389 63.0697 32.475 63.5453C32.4113 64.0207 32.1364 64.4309 31.721 64.6707L29.4781 65.9656L23.3396 59.7719L28.6965 58.8809L32.0441 62.2605ZM20.9153 57.0074L13.2485 43.7282L31.4829 21.564L49.2272 52.2981L20.9153 57.0074Z" fill="white"/>
<path d="M50.2186 15.9589C50.4802 16.1272 50.773 16.2075 51.0627 16.2075C51.5764 16.2075 52.0793 15.9544 52.3779 15.4903L60.7929 2.41294C61.2599 1.68735 61.0501 0.720529 60.3245 0.253679C59.5989 -0.213483 58.6319 -0.00349401 58.1652 0.722091L49.7502 13.7995C49.2832 14.5251 49.4929 15.4919 50.2186 15.9589Z" fill="white"/>
<path d="M78.4362 37.2158H61.0934C60.2305 37.2158 59.531 37.9153 59.531 38.7782C59.531 39.6412 60.2305 40.3406 61.0934 40.3406H78.4362C79.2991 40.3406 79.9986 39.6412 79.9986 38.7782C79.9986 37.9153 79.2991 37.2158 78.4362 37.2158Z" fill="white"/>
<path d="M56.2319 22.3997C55.7905 24.0469 54.0874 25.0442 52.4348 24.6221C51.8151 24.4641 51.1617 24.6994 50.7852 25.2162C50.4088 25.7332 50.3854 26.4273 50.7261 26.9685C52.5843 29.9191 55.7527 31.5393 59.0277 31.5392C60.7325 31.539 62.4666 31.0998 64.0588 30.1805C66.074 29.017 67.5727 27.1663 68.3288 24.9611C70.6166 25.4089 72.9685 25.0364 74.9839 23.873C79.6349 21.1879 81.3412 15.4105 78.8683 10.7205C78.5701 10.1547 77.957 9.82787 77.3212 9.89552C76.6853 9.96317 76.1547 10.4113 75.9819 11.027C75.5212 12.669 73.8061 13.6458 72.1589 13.2044C68.7731 12.297 65.255 13.9553 63.7204 16.9795C60.334 16.7947 57.1391 19.0142 56.2319 22.3997ZM64.3354 20.2184C65.1535 20.424 65.987 19.9425 66.2183 19.1313C66.844 16.9369 69.1465 15.6324 71.3502 16.2225C73.333 16.7537 75.3649 16.2569 76.8688 15.0607C76.9444 17.4764 75.6927 19.8553 73.4214 21.1666C71.7272 22.1447 69.666 22.288 67.7666 21.5594C67.3266 21.3905 66.8338 21.4294 66.4259 21.6652C66.0178 21.9008 65.7378 22.308 65.6641 22.7734C65.3452 24.7827 64.1907 26.4962 62.4966 27.4742C60.225 28.7857 57.5392 28.6803 55.4849 27.4067C57.2726 26.7024 58.7191 25.1911 59.2503 23.2084C59.8409 21.0043 62.1224 19.6631 64.3354 20.2184Z" fill="white"/>
<path d="M47.9816 33.5789C48.3925 33.5789 48.7956 33.4118 49.0862 33.1211C49.3768 32.8305 49.544 32.4274 49.544 32.0165C49.544 31.6056 49.3768 31.2025 49.0862 30.9119C48.7956 30.6213 48.3925 30.4541 47.9816 30.4541C47.5707 30.4541 47.1676 30.6213 46.877 30.9119C46.5864 31.2025 46.4192 31.6056 46.4192 32.0165C46.4192 32.4274 46.5864 32.8305 46.877 33.1211C47.1676 33.4118 47.5707 33.5789 47.9816 33.5789Z" fill="white"/>
</svg>
