<svg xmlns="http://www.w3.org/2000/svg" viewBox="0 0 363 44" fill="none" style="&#10;    width: 100%;&#10;    height: auto;&#10;">
<path d="M19.1821 25.9493H18.9653C18.9133 25.9493 18.87 25.9778 18.8497 26.0192C17.7686 28.4995 15.5804 29.8665 12.6897 29.8665H6.14226V23.8134H9.12545C11.8514 23.8134 13.5569 24.8982 13.5742 26.6458C13.5742 26.7053 13.6291 26.7545 13.6985 26.7545H13.9153C13.9847 26.7545 14.0396 26.7053 14.0396 26.6432V20.5979C14.0396 20.5358 13.9847 20.4866 13.9153 20.4866H13.6985C13.6291 20.4866 13.5742 20.5358 13.5742 20.5979C13.5742 22.519 12.1607 23.4122 9.12545 23.4122H6.14226V17.7294H12.6694C14.8866 17.7294 16.7973 19.1015 17.7802 21.3979C17.7975 21.4419 17.8438 21.4678 17.8958 21.4678H18.1126C18.1502 21.4678 18.1878 21.4523 18.2109 21.4238C18.234 21.3953 18.2427 21.3591 18.2311 21.3254L16.9043 17.1779C16.8898 17.1313 16.8407 17.0977 16.7858 17.0977H16.569C16.5343 17.0977 16.5025 17.1106 16.4765 17.1339C16.4649 17.1443 16.4562 17.1598 16.4504 17.1727C16.1758 17.31 14.0714 17.31 12.6694 17.31H8.59068C8.12817 17.31 7.29276 17.3177 6.45157 17.3281C5.6046 17.3358 4.75184 17.3462 4.27488 17.3462C3.80081 17.3462 3.03478 17.3384 2.26586 17.3281C1.49693 17.3203 0.730901 17.31 0.253938 17.31C0.184562 17.31 0.129639 17.3591 0.129639 17.4213V17.6155C0.129639 17.6776 0.184562 17.7268 0.253938 17.7268H2.36703V29.8613H0.253938C0.184562 29.8613 0.129639 29.9105 0.129639 29.9726V30.1668C0.129639 30.2289 0.184562 30.2781 0.253938 30.2781C0.710666 30.2781 1.48248 30.2703 2.25429 30.26C3.02611 30.2522 3.79792 30.2419 4.25176 30.2419C4.72872 30.2419 5.56702 30.2496 6.39954 30.26C7.22338 30.2677 8.04434 30.2781 8.50685 30.2781H12.6839C14.5166 30.2781 16.7916 30.2781 17.0546 30.4697C17.0546 30.493 17.0633 30.5189 17.0806 30.537C17.1037 30.5629 17.1384 30.5784 17.1789 30.5784H17.3957C17.4477 30.5784 17.494 30.5499 17.5113 30.5059L19.292 26.0917C19.3064 26.0581 19.3007 26.0192 19.2775 25.9908C19.2544 25.9623 19.2226 25.9493 19.1821 25.9493Z" fill="#E9EAF0"/>
<path d="M51.3496 27.7929H51.1328C51.0634 27.7929 51.0085 27.8421 51.0085 27.9042C51.0085 29.2712 49.6586 29.8848 48.6989 29.8848C47.1755 29.8848 46.7563 28.4634 46.3487 27.0913C46.3025 26.9308 46.2533 26.7728 46.2071 26.6175C45.7214 25.0382 44.2443 24.3625 42.8597 24.0855C45.5133 23.6635 46.8055 22.5891 46.8055 20.8156C46.8055 17.2998 41.6543 17.2998 37.8935 17.2998H27.1459C27.0765 17.2998 27.0216 17.349 27.0216 17.4111V17.6053C27.0216 17.6674 27.0765 17.7166 27.1459 17.7166H29.5567V29.8693H27.1459C27.0765 29.8693 27.0216 29.9184 27.0216 29.9806V30.1748C27.0216 30.2369 27.0765 30.2861 27.1459 30.2861C27.8339 30.2861 28.5479 30.2783 29.2648 30.268C29.9903 30.2602 30.7246 30.2498 31.4415 30.2498C32.1294 30.2498 32.8463 30.2576 33.5661 30.268C34.3004 30.2757 35.0375 30.2861 35.7544 30.2861C35.8237 30.2861 35.8787 30.2369 35.8787 30.1748V29.9806C35.8787 29.9184 35.8237 29.8693 35.7544 29.8693H33.3435V24.347H38.6046C40.8362 24.347 41.5502 25.7217 41.9896 27.2078C42.5879 29.2117 43.2037 30.4414 46.7158 30.5864C46.8055 30.589 46.924 30.5942 47.0656 30.5942C47.9386 30.5942 49.6817 30.4751 50.7021 29.6C51.2166 29.1599 51.4768 28.5903 51.4768 27.9068C51.4739 27.8421 51.419 27.7929 51.3496 27.7929ZM33.3406 17.714H37.8877C40.1656 17.714 42.4954 18.0817 42.4954 20.813C42.4954 23.5522 40.2812 23.9276 37.8877 23.9276H33.3406V17.714Z" fill="#E9EAF0"/>
<path d="M77.8947 25.9493H77.6779C77.6259 25.9493 77.5825 25.9778 77.5623 26.0192C76.4812 28.4995 74.2929 29.8665 71.4022 29.8665H64.8548V23.8134H67.838C70.5639 23.8134 72.2694 24.8982 72.2868 26.6458C72.2868 26.7053 72.3417 26.7545 72.4111 26.7545H72.6279C72.6973 26.7545 72.7522 26.7053 72.7522 26.6432V20.5979C72.7522 20.5358 72.6973 20.4866 72.6279 20.4866H72.4111C72.3417 20.4866 72.2868 20.5358 72.2868 20.5979C72.2868 22.519 70.8732 23.4122 67.838 23.4122H64.8548V17.7294H71.382C73.5992 17.7294 75.5099 19.1015 76.4927 21.3979C76.5101 21.4419 76.5563 21.4678 76.6084 21.4678H76.8252C76.8627 21.4678 76.9003 21.4523 76.9234 21.4238C76.9466 21.3953 76.9552 21.3591 76.9437 21.3254L75.6168 17.1779C75.6024 17.1313 75.5533 17.0977 75.4983 17.0977H75.2815C75.2468 17.0977 75.215 17.1106 75.189 17.1339C75.1775 17.1443 75.1688 17.1598 75.163 17.1727C74.8884 17.31 72.784 17.31 71.382 17.31H67.3032C66.8407 17.31 66.0053 17.3177 65.1641 17.3281C64.3172 17.3358 63.4644 17.3462 62.9874 17.3462C62.5134 17.3462 61.7473 17.3384 60.9813 17.3281C60.2124 17.3203 59.4464 17.31 58.9694 17.31C58.9 17.31 58.8451 17.3591 58.8451 17.4213V17.6155C58.8451 17.6776 58.9 17.7268 58.9694 17.7268H61.0825V29.8613H58.9694C58.9 29.8613 58.8451 29.9105 58.8451 29.9726V30.1668C58.8451 30.2289 58.9 30.2781 58.9694 30.2781C59.4261 30.2781 60.1979 30.2703 60.9697 30.26C61.7416 30.2522 62.5134 30.2419 62.9672 30.2419C63.4442 30.2419 64.2825 30.2496 65.115 30.26C65.9388 30.2677 66.7598 30.2781 67.2223 30.2781H71.3993C73.232 30.2781 75.507 30.2781 75.7701 30.4697C75.7701 30.493 75.7787 30.5189 75.7961 30.537C75.8192 30.5629 75.8539 30.5784 75.8944 30.5784H76.1112C76.1632 30.5784 76.2094 30.5499 76.2268 30.5059L78.0074 26.0917C78.0219 26.0581 78.0161 26.0192 77.993 25.9908C77.9728 25.9675 77.9352 25.9493 77.8947 25.9493Z" fill="#E9EAF0"/>
<path d="M107.776 23.7895C107.776 19.3416 102.489 17.3145 97.5775 17.3145H93.7386C93.175 17.3145 92.5361 17.3222 91.8944 17.3326C91.2555 17.3403 90.6196 17.3507 90.0559 17.3507C89.5038 17.3507 88.7811 17.3429 88.0555 17.3326C87.3213 17.3248 86.5842 17.3145 86.0176 17.3145C85.9482 17.3145 85.8933 17.3636 85.8933 17.4258V17.62C85.8933 17.6821 85.9482 17.7313 86.0176 17.7313H88.1307V29.8658H86.0176C85.9482 29.8658 85.8933 29.915 85.8933 29.9771V30.1713C85.8933 30.2334 85.9482 30.2826 86.0176 30.2826C86.5408 30.2826 87.2577 30.2748 87.9804 30.2645C88.7088 30.2567 89.4402 30.2464 89.975 30.2464C90.4953 30.2464 91.1659 30.2541 91.8366 30.2645C92.5159 30.2722 93.1981 30.2826 93.7357 30.2826H97.5746C100.098 30.2826 102.575 29.7441 104.373 28.8043C106.599 27.6444 107.776 25.9098 107.776 23.7895ZM103.469 23.7895C103.469 27.9862 100.517 29.8658 97.5948 29.8658H91.9002V17.7313H97.5948C100.52 17.7313 103.469 19.6057 103.469 23.7895Z" fill="#E9EAF0"/>
<path d="M124.617 30.1713V29.9771C124.617 29.915 124.562 29.8658 124.493 29.8658H122.082V17.7313H124.493C124.562 17.7313 124.617 17.6821 124.617 17.62V17.4258C124.617 17.3636 124.562 17.3145 124.493 17.3145C123.79 17.3145 123.062 17.3222 122.333 17.3326C121.608 17.3403 120.879 17.3507 120.177 17.3507C119.472 17.3507 118.749 17.3429 118.026 17.3326C117.309 17.3248 116.593 17.3145 115.902 17.3145C115.832 17.3145 115.777 17.3636 115.777 17.4258V17.62C115.777 17.6821 115.832 17.7313 115.902 17.7313H118.312V29.8658H115.902C115.832 29.8658 115.777 29.915 115.777 29.9771V30.1713C115.777 30.2334 115.832 30.2826 115.902 30.2826C116.593 30.2826 117.309 30.2748 118.026 30.2645C118.749 30.2567 119.472 30.2464 120.177 30.2464C120.879 30.2464 121.605 30.2541 122.333 30.2645C123.062 30.2722 123.79 30.2826 124.493 30.2826C124.562 30.2826 124.617 30.2334 124.617 30.1713Z" fill="#E9EAF0"/>
<path d="M149.827 17.1648C149.812 17.1182 149.763 17.0845 149.708 17.0845H149.491C149.454 17.0845 149.419 17.1001 149.396 17.1234C149.387 17.1337 149.379 17.1467 149.373 17.1596C149.032 17.3149 146.173 17.3149 144.938 17.3149H136.605C135.662 17.3149 134.24 17.3149 134.116 17.1855C134.119 17.1544 134.107 17.1234 134.084 17.1027C134.061 17.0794 134.029 17.0664 133.994 17.0664H133.778C133.723 17.0664 133.673 17.1001 133.659 17.1467L132.352 21.3304C132.341 21.3641 132.35 21.4003 132.373 21.4262C132.396 21.4547 132.433 21.4702 132.471 21.4702H132.688C132.74 21.4702 132.783 21.4418 132.803 21.4003C133.838 19.0211 135.044 17.7292 138.449 17.7292H139.81V29.8637H137.4C137.33 29.8637 137.275 29.9129 137.275 29.975V30.1692C137.275 30.2313 137.33 30.2805 137.4 30.2805C138.088 30.2805 138.802 30.2727 139.518 30.2624C140.244 30.2546 140.978 30.2443 141.695 30.2443C142.386 30.2443 143.103 30.252 143.826 30.2624C144.554 30.2702 145.285 30.2805 145.991 30.2805C146.06 30.2805 146.115 30.2313 146.115 30.1692V29.975C146.115 29.9129 146.06 29.8637 145.991 29.8637H143.6V17.7292H145.06C148.167 17.7292 149.795 18.7907 150.682 21.3926C150.697 21.4392 150.746 21.4702 150.801 21.4702H151.018C151.055 21.4702 151.093 21.4547 151.116 21.4262C151.139 21.3978 151.148 21.3615 151.136 21.3304L149.827 17.1648Z" fill="#E9EAF0"/>
<path d="M181.754 29.8658H179.309L170.813 17.4206C170.804 17.4102 170.796 17.3999 170.787 17.3921C170.773 17.3455 170.723 17.3145 170.668 17.3145C170.4 17.3145 170.122 17.3222 169.842 17.3326C169.567 17.3403 169.29 17.3507 169.024 17.3507C168.766 17.3507 167.604 17.3429 166.442 17.3326C165.277 17.3248 164.115 17.3145 163.858 17.3145C163.789 17.3145 163.734 17.3636 163.734 17.4258V17.62C163.734 17.6821 163.789 17.7313 163.858 17.7313H166.645L158.305 29.8658H155.839C155.77 29.8658 155.715 29.915 155.715 29.9771V30.1713C155.715 30.1998 155.729 30.2282 155.753 30.2489C155.776 30.2697 155.807 30.2826 155.839 30.2826C156.533 30.2826 156.837 30.2748 157.129 30.2645C157.423 30.2567 157.73 30.2464 158.432 30.2464C159.132 30.2464 159.476 30.2541 159.805 30.2645C160.138 30.2722 160.479 30.2826 161.184 30.2826C161.216 30.2826 161.248 30.2697 161.271 30.2489C161.294 30.2282 161.308 30.1998 161.308 30.1713V29.9771C161.308 29.915 161.254 29.8658 161.184 29.8658H158.851L161.67 25.7623H172.279L175.077 29.8658H172.724C172.654 29.8658 172.599 29.915 172.599 29.9771V30.1713C172.599 30.2334 172.654 30.2826 172.724 30.2826C173.672 30.2826 174.458 30.2722 175.218 30.2645C175.898 30.2567 176.542 30.2489 177.236 30.2489C177.797 30.2489 178.679 30.2593 179.549 30.2671C180.396 30.2748 181.231 30.2852 181.748 30.2852C181.818 30.2852 181.873 30.236 181.873 30.1739V29.9797C181.879 29.915 181.824 29.8658 181.754 29.8658ZM171.995 25.3454H161.968L167.012 18.0264L171.995 25.3454Z" fill="#E9EAF0"/>
<path d="M163.098 13.5221C162.783 13.4263 162.395 13.1208 162.277 12.8023C162.106 12.3311 162.257 11.7875 162.618 11.4328C162.789 11.2593 163 11.135 163.231 11.0677C163.737 10.9202 164.329 11.0185 164.67 11.3163L169.339 15.3991L169.148 15.4534L163.098 13.5221Z" fill="#E9EAF0"/>
<path d="M206.143 1.08H209.209V43.122H206.143V1.08Z" fill="#E9EAF0"/>
<path d="M254.383 33.8801H257.582V19.4724H254.383V33.8801ZM278.245 33.8801H291.866V31.468H281.461V27.9113H288.337V25.4973H281.461V21.9053H291.548V19.4724H278.245V33.8801ZM305.788 23.7565C305.788 24.4562 305.553 24.92 305.082 25.1471C304.613 25.3749 304.022 25.491 303.32 25.491H297.499V21.9255H303.32C304.022 21.9255 304.613 22.0643 305.082 22.3356C305.553 22.6082 305.788 23.0839 305.788 23.7565ZM308.995 23.7565C308.995 22.1892 308.507 21.0882 307.526 20.4572C306.544 19.8231 305.075 19.5102 303.116 19.5102H294.291V33.8599H297.506L297.499 27.9107H303.116C305.075 27.9107 306.544 27.6116 307.526 27.0103C308.507 26.4128 308.995 25.325 308.995 23.7565ZM310.928 33.8965H325.007V31.4888H314.088V19.4648L310.928 19.473V33.8965ZM327.411 33.8801H341.031V31.468H330.627V27.8968H337.502V25.4828H330.627V21.9059H340.712V19.473H327.411V33.8801Z" fill="white"/>
<path d="M252.591 21.0409C252.151 20.7658 251.448 20.3935 250.412 20.039C249.835 19.8389 249.186 19.6459 248.398 19.5159C247.63 19.3885 246.794 19.285 245.873 19.285C244.687 19.285 243.533 19.4396 242.405 19.743C241.281 20.0509 240.283 20.5147 239.408 21.1337C238.54 21.7545 237.835 22.523 237.304 23.4373C236.77 24.3534 236.505 25.4203 236.505 26.645C236.505 27.8628 236.77 28.9347 237.304 29.8603C237.835 30.7859 238.528 31.5607 239.374 32.1829C240.22 32.8018 241.188 33.2568 242.278 33.5394C243.369 33.8221 244.46 34 245.573 34C246.66 34 247.575 33.9243 248.461 33.7508C249.341 33.5741 250.203 33.3198 250.87 33.0656C250.87 33.0656 251.701 32.7242 252.673 32.2043L250.764 30.2869C250.405 30.4812 249.988 30.6831 249.507 30.8743C248.953 31.0939 248.332 31.2629 247.654 31.4144C246.975 31.5664 246.03 31.6434 245.378 31.6434C244.674 31.6434 243.985 31.5279 243.309 31.3008C242.63 31.0718 242.024 30.7342 241.491 30.2869C240.958 29.8427 240.528 29.3057 240.203 28.6868C239.874 28.0659 239.711 27.3618 239.711 26.5781C239.711 25.7913 239.854 25.0942 240.147 24.484C240.436 23.8739 240.849 23.3628 241.379 22.9502C241.916 22.5344 242.539 22.2258 243.255 22.0164C243.967 21.8119 244.761 21.7084 245.63 21.7084C246.356 21.7084 247.302 21.7659 247.907 21.8876C248.238 21.952 248.543 22.0258 248.824 22.1059C248.824 22.1059 249.642 22.3243 250.678 22.9615L252.591 21.0409Z" fill="white"/>
<path d="M361.743 20.5353C361.693 20.5498 361.625 20.5605 361.531 20.5605H361.336V20.115H361.519C361.642 20.115 361.73 20.127 361.785 20.1586C361.84 20.1888 361.867 20.25 361.867 20.3409C361.868 20.4343 361.825 20.4993 361.743 20.5353ZM361.992 20.746C361.946 20.6785 361.874 20.6394 361.779 20.6248C361.852 20.6122 361.913 20.5946 361.956 20.5649C362.038 20.5138 362.079 20.433 362.079 20.3213C362.079 20.1668 362.013 20.0627 361.885 20.009C361.814 19.9806 361.703 19.9674 361.553 19.9674H361.117V21.1996H361.336V20.7138H361.506C361.625 20.7138 361.703 20.7271 361.75 20.7529C361.828 20.799 361.864 20.8936 361.864 21.0356V21.134L361.871 21.1731C361.871 21.1788 361.871 21.1851 361.874 21.1883V21.2003H362.079L362.072 21.1851C362.067 21.1731 362.064 21.1523 362.062 21.1195V20.9372C362.062 20.8741 362.035 20.8116 361.992 20.746ZM362.535 20.5857C362.535 20.8551 362.442 21.0848 362.259 21.2741C362.068 21.464 361.84 21.5612 361.57 21.5612C361.303 21.5612 361.072 21.464 360.887 21.2741C360.699 21.0854 360.606 20.8551 360.606 20.5857C360.606 20.3195 360.702 20.0923 360.887 19.9037C361.077 19.7125 361.307 19.6185 361.57 19.6185C361.84 19.6185 362.068 19.7125 362.259 19.9037C362.442 20.0923 362.535 20.3195 362.535 20.5857ZM362.697 20.5845C362.697 20.2747 362.586 20.0103 362.367 19.7932C362.15 19.5718 361.883 19.4639 361.571 19.4639C361.263 19.4639 361 19.5718 360.782 19.7932C360.563 20.0103 360.452 20.2747 360.452 20.5845C360.452 20.8955 360.56 21.1631 360.777 21.3833C360.996 21.6028 361.26 21.7139 361.571 21.7139C361.883 21.7139 362.15 21.6028 362.367 21.3833C362.586 21.1618 362.697 20.8955 362.697 20.5845Z" fill="white"/>
<path d="M342.503 19.4645L356.64 33.8262H360.556L346.406 19.4645H342.503Z" fill="white"/>
<path d="M360.555 19.4645L346.419 33.8262H342.502L356.652 19.4645H360.555Z" fill="white"/>
<path d="M275.8 33.8457V19.4379H273.027V29.8556L262.804 19.4481V19.4379H260.033V33.8457H262.804V23.4577L273.027 33.8425V33.8457H275.8Z" fill="white"/>
<path d="M327.748 7.54706C327.748 3.55566 316.246 0.286079 301.667 0.000259399L301.543 1.10442C313.562 1.38709 323.014 4.28249 323.014 7.81455C323.014 11.4337 313.102 14.3859 300.665 14.5443L300.752 15.1064C315.765 14.9437 327.748 11.6224 327.748 7.54706Z" fill="#FFCB05"/>
<path d="M317.285 8.44758C317.285 11.1619 309.846 13.3784 300.491 13.5128L300.578 14.0693C311.477 13.9242 320.161 11.3386 320.161 8.17247C320.161 5.08712 311.92 2.5551 301.417 2.29073L301.294 3.40187C310.265 3.64541 317.285 5.8121 317.285 8.44758Z" fill="#FFCB05"/>
<path d="M314.454 8.79141C314.454 6.60516 308.633 4.80631 301.168 4.58421L301.044 5.69407C306.993 5.89472 311.609 7.32696 311.609 9.06776C311.609 10.8805 306.612 12.3607 300.314 12.4623L300.401 13.0156C308.231 12.9027 314.454 11.054 314.454 8.79141Z" fill="#FFCB05"/>
<path d="M271.453 7.54706C271.453 3.55566 282.955 0.286079 297.537 0.000259399L297.66 1.10442C285.639 1.38709 276.188 4.28249 276.188 7.81455C276.188 11.4337 286.1 14.3859 298.537 14.5443L298.45 15.1064C283.437 14.9437 271.453 11.6224 271.453 7.54706Z" fill="#FFCB05"/>
<path d="M281.915 8.44758C281.915 11.1619 289.357 13.3784 298.71 13.5128L298.623 14.0693C287.724 13.9242 279.041 11.3386 279.041 8.17247C279.041 5.08712 287.281 2.5551 297.785 2.29073L297.91 3.40187C288.935 3.64541 281.915 5.8121 281.915 8.44758Z" fill="#FFCB05"/>
<path d="M284.748 8.79141C284.748 6.60516 290.568 4.80631 298.033 4.58421L298.156 5.69407C292.208 5.89472 287.592 7.32696 287.592 9.06776C287.592 10.8805 292.59 12.3607 298.886 12.4623L298.799 13.0156C290.97 12.9027 284.748 11.054 284.748 8.79141Z" fill="#FFCB05"/>
</svg>