<svg width="91" height="91" viewBox="0 0 91 91" fill="none" xmlns="http://www.w3.org/2000/svg">
<g clip-path="url(#clip0_43_661)">
<path d="M43.7596 63.0144L44.4227 60.331C44.5507 59.8131 44.3843 59.2692 43.9885 58.9116C43.5927 58.5538 43.0348 58.4431 42.5334 58.6221L40.4168 59.3759L41.2415 55.826C41.3563 55.3297 41.1983 54.8035 40.8293 54.4524C40.4601 54.1011 39.9264 53.9695 39.4357 54.1094L37.7117 54.601L36.2317 53.2991C35.6871 52.8196 34.8652 52.8196 34.3207 53.2989L32.8403 54.601L31.1154 54.1091C30.6252 53.9695 30.0913 54.1014 29.7221 54.453C29.3532 54.8044 29.1955 55.331 29.3109 55.8272L30.1354 59.3759L28.0202 58.6226C27.5175 58.4428 26.9596 58.5537 26.5636 58.9114C26.1678 59.2692 26.0013 59.8131 26.1292 60.331L26.7924 63.0146L24.9797 65.0952C24.6409 65.4841 24.535 66.0286 24.7031 66.5162C24.8712 67.0039 25.2903 67.3673 25.7972 67.4649L28.975 68.0756L28.5567 69.1532C28.1725 70.0628 28.927 71.1536 29.9073 71.1218C29.8906 71.2853 35.1278 69.3667 35.276 69.34L40.1708 71.0416C41.3005 71.4636 42.4556 70.2672 41.9951 69.1532L41.577 68.0756L44.7549 67.4649C45.2615 67.3673 45.6807 67.004 45.8489 66.5163C46.017 66.0288 45.9113 65.4841 45.5721 65.0948L43.7596 63.0144ZM39.6371 65.7338C38.7809 65.877 38.2328 66.8521 38.5552 67.6574L35.7484 66.6818C35.4438 66.5764 35.1084 66.5766 34.8011 66.6827L31.9968 67.6574C32.319 66.8515 31.7709 65.877 30.9142 65.7336L28.3831 65.2471C29.7038 63.7337 29.7973 63.8866 29.2618 61.8949L31.3434 62.6362C31.8416 62.8138 32.3965 62.7052 32.7913 62.3529C33.186 62.001 33.3568 61.4621 33.2372 60.9467L32.3763 57.2411L32.7488 57.3476C33.2255 57.4833 33.7317 57.3691 34.1013 57.0426L35.2758 56.0094L36.4501 57.0424C36.8216 57.3692 37.3274 57.4833 37.8025 57.3476L38.1756 57.2411L37.3148 60.946C37.1946 61.4612 37.3653 62.0003 37.7598 62.3527C38.1546 62.7052 38.7095 62.814 39.2084 62.6364L41.2898 61.8951C40.7527 63.8901 40.8517 63.7371 42.1687 65.2473L39.6371 65.7338Z" fill="white"/>
<path d="M90.2301 54.1772C87.1311 45.9856 83.993 52.3501 80.0473 53.0612C75.5286 52.9755 71.6769 44.6191 68.5307 45.5574C66.5695 46.14 65.4813 48.1893 64.1957 49.5898C61.6321 52.2077 60.6188 58.1476 58.9207 61.431L48.9905 57.4924C45.5036 56.401 44.8523 54.1521 46.5577 48.8107C46.8161 48.0045 47.1378 47.0011 47.0132 45.9051C46.9569 45.1962 46.5906 44.4771 46.5797 43.8622C46.6089 43.4029 47.089 42.9182 47.6451 42.3571C48.7996 41.116 50.5116 39.743 47.7432 37.8192C45.7911 36.5447 39.852 34.3354 38.0421 36.9119C37.6335 37.4936 36.9409 37.843 36.4221 38.0355C30.5417 39.8861 22.6194 33.1459 17.8828 29.1163C14.8559 26.5412 13.8452 25.7334 12.7558 25.8859C12.2679 25.9537 11.5515 26.2078 9.9366 27.5776C9.37514 28.0539 9.30618 28.895 9.78233 29.4564C10.2587 30.0177 11.0999 30.087 11.6612 29.6107C12.36 29.018 12.774 28.7404 12.992 28.6135C15.1384 30.1034 17.959 32.814 20.494 34.7131V70.1308C17.5938 69.32 15.0797 68.866 11.9971 68.4818C10.1614 68.2402 7.12502 67.8405 6.40733 67.4187C6.31669 67.2417 6.32255 67.0734 6.34832 66.7058C6.38725 66.1529 6.44608 65.3174 5.79362 64.5222C5.19163 63.7679 4.31398 63.1153 3.84085 62.3501C2.69855 60.4935 4.35041 57.3879 4.9723 55.1062C5.74652 52.4037 5.70208 49.6561 5.65889 46.9988C5.64894 46.3926 5.63543 45.5622 5.26148 44.7793C4.97479 44.1496 4.50717 43.7525 4.19614 43.2474C3.47756 41.9373 2.23591 40.0658 2.81941 39.2016C3.12173 38.6087 4.94689 36.3739 7.36834 33.7974C7.87257 33.2609 7.84645 32.4173 7.30987 31.9133C6.77346 31.4089 5.92976 31.4353 5.42553 31.9716C3.34497 34.1854 0.997631 36.9051 0.444344 37.9907C-0.643746 40.125 0.496064 42.122 1.41175 43.7267C1.73843 44.3051 2.07523 44.9671 2.48722 45.4177C2.96764 45.9154 2.99394 46.3257 2.99341 47.0422C3.0334 49.5043 3.07463 52.0504 2.40955 54.372C1.5431 57.3543 -0.259485 60.6188 1.54914 63.7121C2.15717 64.7389 2.99714 65.3563 3.70381 66.1781C3.67396 67.0021 3.49675 67.8028 4.24306 68.9876C5.01834 70.1468 6.99208 70.5117 11.6493 71.1249C13.0896 71.3143 14.579 71.5105 15.713 71.7443C17.4299 72.0981 19.2053 72.4643 20.847 73.0394C22.5307 73.63 24.1833 74.4703 25.8868 75.1258C30.6162 76.8879 36.7418 76.4288 41.0803 76.5049C42.9223 76.6559 43.6679 77.9523 45.7954 77.4858C47.0518 77.2 48.6532 76.6151 49.7031 76.9961C51.2796 77.679 52.3231 79.4514 54.2652 79.8281C54.8243 80.0894 56.2378 81.8886 56.9207 82.7577C58.2405 84.4377 58.8429 85.2044 59.7099 85.3031C61.0441 85.4346 61.684 83.8691 62.2373 83.0323C64.1164 80.5338 68.7247 80.7252 70.9098 77.6768C71.8051 76.4919 72.1049 75.152 72.6774 73.8899C73.3725 72.2704 71.0539 71.1894 70.2609 72.7637C70.0505 73.2148 69.8802 73.6689 69.7154 74.1079C69.1822 75.6917 68.5609 76.7103 67.0258 77.4302V50.3641C67.6407 49.5866 68.4206 48.5249 69.0855 48.1943C72.3463 50.7631 75.3414 55.6053 79.9895 55.7267C81.6487 55.7522 83.2151 54.7198 84.5916 53.8103C85.1949 53.4117 86.086 52.8227 86.4792 52.7411C87.1889 53.3388 88.1154 55.9934 88.3095 57.0687C87.8772 57.4752 85.8617 59.6098 85.4071 59.9191C85.3015 59.9553 84.8543 59.7191 84.5015 59.1879C83.6511 57.9075 82.4357 57.3296 80.8914 57.4741C79.4243 57.6105 78.7596 58.8544 78.2255 59.854C77.6349 61.1762 76.5218 61.9008 76.4974 63.6858C76.5013 67.4779 82.8264 66.8249 81.2513 69.5302C79.4697 69.107 78.0055 68.9222 76.6807 68.9435C74.9367 69.026 74.9575 71.5576 76.7043 71.6094C77.9342 71.5843 79.4039 71.8008 81.2337 72.2723C81.5504 72.3542 81.8885 72.3166 82.1801 72.1651C84.2127 71.181 84.8253 68.0344 83.3093 66.3603C82.5884 65.5188 81.5792 65.0609 80.6889 64.6569C79.7724 64.241 79.1709 63.9438 79.1626 63.6177C79.1562 63.3644 79.4885 62.8913 79.687 62.6089C80.2833 61.8064 80.6525 60.7916 81.1825 60.1247C81.7283 60.0815 81.978 60.2072 82.2807 60.6627C83.1424 61.9596 84.7263 63.0068 86.3229 62.4224C86.9773 62.183 87.4231 61.7364 87.7484 61.4102L90.0461 59.1073C90.3337 58.8189 90.815 58.3363 90.9728 57.6085C91.1534 56.776 90.3858 54.6041 90.2301 54.1772ZM60.033 81.5328C59.9219 81.696 59.8252 81.8561 59.7335 82.0125C58.1776 80.035 56.1435 77.3331 54.8519 77.2275C54.2612 77.1037 53.7044 76.6295 53.0598 76.0806C50.7729 73.9363 48.7979 73.8799 45.977 74.6927C45.1524 74.9021 44.9089 75.0878 43.9312 74.5884C43.271 74.2926 42.4492 73.9247 41.2584 73.8449C36.3079 73.7754 29.4988 74.3157 24.7033 71.7366C24.1984 71.5155 23.6838 71.291 23.1602 71.0749V36.659C28.2322 40.1788 35.937 43.504 40.1911 38.4903C41.199 38.0126 45.0002 39.1584 46.2131 40.0039C44.6181 41.5698 43.3178 42.9518 44.193 45.4826C44.5219 46.3627 44.3334 47.0617 44.0182 47.9986C42.4087 52.6687 42.0939 58.1405 48.0482 59.9868L58.3355 64.067C58.8596 64.2751 59.4287 64.2584 59.9388 64.021C61.8797 63.376 63.1208 57.2436 64.3596 54.517V78.5364C62.7722 79.1677 61.1038 79.9593 60.033 81.5328Z" fill="white"/>
<path d="M42.8495 23.8546C41.6395 23.7691 40.1334 23.6626 39.3371 24.7596C39.0124 25.2069 38.7284 25.9943 39.2193 27.2047C39.4836 27.8637 39.8291 28.511 40.0383 29.1574C40.2082 30.2025 40.3436 31.584 40.9605 31.9839C43.5059 33.9481 46.1795 32.5596 48.7206 32.445C48.9682 32.4061 48.9973 32.5132 49.1321 32.7667C49.9569 34.1534 50.8916 35.7249 50.9661 37.2987C50.9128 38.8459 51.6968 39.8453 53.1035 40.3528C54.9401 41.0712 56.8376 41.5692 58.818 41.6756C61.5383 41.7723 62.7933 39.0265 60.2783 36.9275C59.8354 36.513 59.4239 36.0651 59.0487 35.5886C59.2243 35.5321 59.404 35.4862 59.5866 35.4515C60.1774 35.3399 60.6203 34.8467 60.6679 34.2472C60.728 33.4906 60.7338 32.7228 60.6855 31.9651C60.6814 30.7933 59.8546 30.0086 58.9268 29.7674C57.8819 29.4274 56.8008 29.2607 55.7916 28.9246C54.2323 28.4094 53.9284 27.7905 53.5436 27.0072C52.8551 25.6054 52.0385 24.4334 49.0128 24.2902L42.8495 23.8546ZM51.1511 28.1824C52.3594 30.952 54.6365 31.4355 58.0337 32.2808C58.0481 32.5568 58.054 32.8341 58.0515 33.1113C57.2835 33.4458 56.3267 33.6751 55.9633 34.7125C55.8088 35.2242 55.9096 35.753 56.2628 36.283C56.9271 37.2758 57.7056 38.2 58.5977 38.9977C56.9397 38.805 55.1386 38.3998 53.6554 37.6622C53.6742 35.3213 52.464 33.0983 51.4422 31.4344C50.6787 29.9915 49.4777 29.7379 48.5923 29.7815C46.864 29.7729 44.1578 30.8466 42.8914 30.0777C42.7852 29.5616 42.707 28.7398 42.5845 28.3656C42.3629 27.6684 42.0767 27.098 41.8028 26.4703C42.1163 26.4569 48.3321 26.921 48.8416 26.95C50.5358 27.0173 50.7535 27.3394 51.1511 28.1824Z" fill="white"/>
<path d="M32.4124 19.0013C34.9423 19.6973 37.5882 19.8857 40.0573 20.5717C41.3622 20.9403 42.5656 21.4 44.0067 21.3989C44.9375 21.3989 46.4319 21.2197 47.3039 20.1876C48.221 19.0473 47.9373 17.8963 47.9042 16.8621C47.8945 15.727 48.7519 14.3994 49.2271 13.2427C50.7403 9.95512 48.6019 7.79707 47.5367 6.74328C46.6942 5.80982 45.7188 5.50003 44.5577 5.79756C42.8479 6.08353 40.7456 6.78949 39.8541 8.86365C39.3981 9.76281 38.7795 10.5647 38.0119 11.2193C37.8532 11.4003 37.6163 11.4728 37.3381 11.4639L34.4812 11.6587C34.1405 11.682 33.6279 11.7168 33.1221 12.0101C31.8307 12.7379 31.0342 15.727 30.9999 15.8579C30.5307 17.3761 30.9157 18.6458 32.4124 19.0013ZM34.4897 14.3322C34.5482 14.3261 34.617 14.3213 34.6627 14.3183L37.4815 14.1262C38.362 14.1118 39.1736 13.7906 39.7768 13.2181C40.7867 12.3488 41.6068 11.292 42.2132 10.1057C42.7078 8.84659 43.9273 8.63686 45.3694 8.3548C46.8858 9.75321 47.5113 10.794 46.7991 12.1418C46.1541 13.6591 45.2361 15.0261 45.2384 16.8827C45.2238 17.3405 45.3809 18.105 45.2676 18.467C45.1524 18.5975 44.4821 18.7972 43.6123 18.7153C42.7153 18.6316 41.7027 18.2612 40.7753 18.0042C38.3898 17.3334 35.9209 17.1263 33.5721 16.5482C33.7619 15.8401 34.1975 14.7639 34.4897 14.3322Z" fill="white"/>
<path d="M21.7923 26.9751C22.3563 27.4387 23.029 27.6935 23.6795 27.94C24.376 28.2038 25.0338 28.4532 25.1911 28.8319C25.4512 29.4778 25.6264 30.169 26.4223 30.7298C26.8691 31.0328 27.3343 31.1274 27.7352 31.1922C29.0275 31.4018 30.3465 31.5189 31.655 31.5408C35.5468 31.8182 35.9652 27.2721 34.742 24.5729C33.871 22.8744 32.501 22.9185 31.6831 22.9443C30.9348 22.9677 30.3437 22.9869 29.394 22.0553C28.13 20.799 26.5903 18.3047 24.7429 18.7865C23.7733 19.0992 23.5409 19.6907 22.836 20.2532C22.1368 20.9021 21.4761 21.5149 21.0872 22.0489C20.2604 23.1837 20.1284 25.6069 21.7923 26.9751ZM23.2423 23.6184C23.6162 23.1176 24.7088 22.1715 25.323 21.5761C26.1068 22.2604 26.8611 23.3568 27.5559 23.9862C29.6139 25.9004 30.876 25.5685 32.2593 25.6114C32.2786 25.635 32.3144 25.6837 32.3611 25.7728C32.6585 26.3993 32.9194 28.2712 32.3332 28.8259C32.2036 28.8833 31.8631 28.8778 31.6994 28.8747C30.4405 28.8499 29.1798 28.7434 27.9389 28.5187C26.8087 24.6448 22.4837 26.1209 23.2423 23.6184Z" fill="white"/>
</g>
<defs>
<clipPath id="clip0_43_661">
<rect width="91" height="91" fill="white"/>
</clipPath>
</defs>
</svg>
