<svg xmlns="http://www.w3.org/2000/svg" viewBox="0 0 127 34" fill="none" style="&#10;    width: 100%;&#10;    height: auto;&#10;">
<path d="M17.8774 33.8801H21.0763V19.4724H17.8774V33.8801ZM41.74 33.8801H55.3609V31.468H44.9553V27.9113H51.8314V25.4973H44.9553V21.9053H55.0423V19.4724H41.74V33.8801ZM69.2829 23.7565C69.2829 24.4562 69.0481 24.92 68.5768 25.1471C68.1074 25.3749 67.5168 25.491 66.8152 25.491H60.9934V21.9255H66.8152C67.5168 21.9255 68.1074 22.0643 68.5768 22.3356C69.0481 22.6082 69.2829 23.0839 69.2829 23.7565ZM72.4893 23.7565C72.4893 22.1892 72.0016 21.0882 71.0211 20.4572C70.0387 19.8231 68.5699 19.5102 66.6108 19.5102H57.7857V33.8599H61.001L60.9934 27.9107H66.6108C68.5699 27.9107 70.0387 27.6116 71.0211 27.0103C72.0016 26.4128 72.4893 25.325 72.4893 23.7565ZM74.4226 33.8965H88.5016V31.4888H77.583V19.4648L74.4226 19.473V33.8965ZM90.9062 33.8801H104.526V31.468H94.1215V27.8968H100.996V25.4828H94.1215V21.9059H104.207V19.473H90.9062V33.8801Z" fill="white"/>
<path d="M16.0854 21.0409C15.6457 20.7658 14.9428 20.3935 13.9068 20.039C13.3295 19.8389 12.6808 19.6459 11.8921 19.5159C11.1249 19.3885 10.2889 19.285 9.36773 19.285C8.18154 19.285 7.02753 19.4396 5.90003 19.743C4.77567 20.0509 3.77751 20.5147 2.90301 21.1337C2.03419 21.7545 1.32941 22.523 0.798778 23.4373C0.264994 24.3534 0 25.4203 0 26.645C0 27.8628 0.264994 28.9347 0.798778 29.8603C1.32941 30.7859 2.02219 31.5607 2.86829 32.1829C3.71503 32.8018 4.68229 33.2568 5.77258 33.5394C6.86412 33.8221 7.95439 34 9.06739 34C10.1545 34 11.0694 33.9243 11.9552 33.7508C12.8361 33.5741 13.6973 33.3198 14.3642 33.0656C14.3642 33.0656 15.1958 32.7242 16.1681 32.2043L14.2582 30.2869C13.8992 30.4812 13.4821 30.6831 13.002 30.8743C12.4474 31.0939 11.8265 31.2629 11.1489 31.4144C10.47 31.5664 9.52482 31.6434 8.87305 31.6434C8.16891 31.6434 7.47928 31.5279 6.80353 31.3008C6.12463 31.0718 5.51892 30.7342 4.98514 30.2869C4.45262 29.8427 4.02232 29.3057 3.69738 28.6868C3.36865 28.0659 3.20524 27.3618 3.20524 26.5781C3.20524 25.7913 3.34909 25.0942 3.64185 24.484C3.93019 23.8739 4.34347 23.3628 4.8741 22.9502C5.41103 22.5344 6.03314 22.2258 6.74927 22.0164C7.46161 21.8119 8.25535 21.7084 9.12417 21.7084C9.85103 21.7084 10.7962 21.7659 11.4019 21.8876C11.7325 21.952 12.0373 22.0258 12.3187 22.1059C12.3187 22.1059 13.137 22.3243 14.173 22.9615L16.0854 21.0409Z" fill="white"/>
<path d="M125.237 20.5358C125.188 20.5503 125.119 20.561 125.025 20.561H124.83V20.1155H125.014C125.137 20.1155 125.225 20.1275 125.28 20.159C125.334 20.1893 125.362 20.2505 125.362 20.3414C125.363 20.4348 125.32 20.4998 125.237 20.5358ZM125.487 20.7465C125.441 20.679 125.369 20.6398 125.273 20.6253C125.346 20.6127 125.408 20.5951 125.451 20.5654C125.533 20.5143 125.574 20.4335 125.574 20.3218C125.574 20.1672 125.508 20.0631 125.38 20.0095C125.309 19.9811 125.198 19.9679 125.047 19.9679H124.612V21.2001H124.83V20.7143H125.001C125.119 20.7143 125.198 20.7275 125.245 20.7534C125.322 20.7995 125.358 20.8941 125.358 21.0361V21.1345L125.366 21.1736C125.366 21.1793 125.366 21.1856 125.369 21.1888V21.2007H125.574L125.567 21.1856C125.562 21.1736 125.559 21.1528 125.557 21.12V20.9376C125.557 20.8745 125.529 20.8121 125.487 20.7465ZM126.03 20.5862C126.03 20.8556 125.937 21.0853 125.753 21.2746C125.562 21.4645 125.335 21.5617 125.065 21.5617C124.798 21.5617 124.567 21.4645 124.382 21.2746C124.194 21.0859 124.101 20.8556 124.101 20.5862C124.101 20.3199 124.197 20.0928 124.382 19.9041C124.572 19.713 124.802 19.619 125.065 19.619C125.334 19.619 125.562 19.713 125.753 19.9041C125.937 20.0928 126.03 20.3199 126.03 20.5862ZM126.192 20.585C126.192 20.2752 126.081 20.0108 125.862 19.7937C125.645 19.5723 125.377 19.4644 125.066 19.4644C124.758 19.4644 124.495 19.5723 124.276 19.7937C124.058 20.0108 123.947 20.2752 123.947 20.585C123.947 20.896 124.055 21.1635 124.271 21.3837C124.491 21.6033 124.755 21.7144 125.066 21.7144C125.377 21.7144 125.645 21.6033 125.862 21.3837C126.081 21.1623 126.192 20.896 126.192 20.585Z" fill="white"/>
<path d="M105.998 19.464L120.135 33.8257H124.051L109.901 19.464H105.998Z" fill="white"/>
<path d="M124.05 19.464L109.913 33.8257H105.996L120.147 19.464H124.05Z" fill="white"/>
<path d="M39.2942 33.8452V19.4374H36.5218V29.8551L26.2985 19.4476V19.4374H23.5273V33.8452H26.2985V23.4573L36.5218 33.8421V33.8452H39.2942Z" fill="white"/>
<path d="M91.243 7.54657C91.243 3.55517 79.7407 0.285591 65.1614 -0.000228882L65.0371 1.10393C77.0567 1.3866 86.5083 4.282 86.5083 7.81406C86.5083 11.4332 76.5961 14.3854 64.1594 14.5438L64.2465 15.106C79.2593 14.9432 91.243 11.6219 91.243 7.54657Z" fill="#FFCB05"/>
<path d="M80.7797 8.4471C80.7797 11.1614 73.3402 13.3779 63.9851 13.5123L64.0722 14.0688C74.9718 13.9237 83.655 11.3381 83.655 8.17198C83.655 5.08663 75.4148 2.55461 64.9113 2.29025L64.7883 3.40138C73.7598 3.64493 80.7797 5.81162 80.7797 8.4471Z" fill="#FFCB05"/>
<path d="M77.9488 8.79092C77.9488 6.60468 72.127 4.80582 64.6629 4.58372L64.5386 5.69359C70.4878 5.89423 75.1032 7.32648 75.1032 9.06727C75.1032 10.88 70.1061 12.3602 63.8086 12.4618L63.8957 13.0151C71.7251 12.9022 77.9488 11.0535 77.9488 8.79092Z" fill="#FFCB05"/>
<path d="M34.947 7.54657C34.947 3.55517 46.4493 0.285591 61.0318 -0.000228882L61.1548 1.10393C49.1339 1.3866 39.6823 4.282 39.6823 7.81406C39.6823 11.4332 49.5945 14.3854 62.0312 14.5438L61.9441 15.106C46.9319 14.9432 34.947 11.6219 34.947 7.54657Z" fill="#FFCB05"/>
<path d="M45.4094 8.4471C45.4094 11.1614 52.8514 13.3779 62.204 13.5123L62.1176 14.0688C51.2179 13.9237 42.5354 11.3381 42.5354 8.17198C42.5354 5.08663 50.7756 2.55461 61.279 2.29025L61.4046 3.40138C52.4293 3.64493 45.4094 5.81162 45.4094 8.4471Z" fill="#FFCB05"/>
<path d="M48.2424 8.79092C48.2424 6.60468 54.063 4.80582 61.5271 4.58372L61.6508 5.69359C55.7028 5.89423 51.0868 7.32648 51.0868 9.06727C51.0868 10.88 56.0845 12.3602 62.3808 12.4618L62.2937 13.0151C54.4649 12.9022 48.2424 11.0535 48.2424 8.79092Z" fill="#FFCB05"/>
</svg>