<svg width="127" height="34" viewBox="0 0 127 34" fill="none" xmlns="http://www.w3.org/2000/svg">
<path d="M17.8773 33.8801H21.0762V19.4724H17.8773V33.8801ZM41.7398 33.8801H55.3608V31.468H44.9552V27.9113H51.8313V25.4973H44.9552V21.9053H55.0422V19.4724H41.7398V33.8801ZM69.2827 23.7565C69.2827 24.4562 69.048 24.92 68.5767 25.1471C68.1073 25.3749 67.5167 25.491 66.8151 25.491H60.9933V21.9255H66.8151C67.5167 21.9255 68.1073 22.0643 68.5767 22.3356C69.048 22.6082 69.2827 23.0839 69.2827 23.7565ZM72.4892 23.7565C72.4892 22.1892 72.0015 21.0882 71.021 20.4572C70.0386 19.8231 68.5698 19.5102 66.6106 19.5102H57.7855V33.8599H61.0009L60.9933 27.9107H66.6106C68.5698 27.9107 70.0386 27.6116 71.021 27.0103C72.0015 26.4128 72.4892 25.325 72.4892 23.7565ZM74.4225 33.8965H88.5015V31.4888H77.5829V19.4648L74.4225 19.473V33.8965ZM90.906 33.8801H104.526V31.468H94.1214V27.8968H100.996V25.4828H94.1214V21.9059H104.207V19.473H90.906V33.8801Z" fill="#00599D"/>
<path d="M16.0854 21.0409C15.6457 20.7658 14.9428 20.3935 13.9068 20.039C13.3295 19.8389 12.6808 19.6459 11.8921 19.5159C11.1249 19.3885 10.2889 19.285 9.36773 19.285C8.18154 19.285 7.02753 19.4396 5.90003 19.743C4.77567 20.0509 3.77751 20.5147 2.90301 21.1337C2.03419 21.7545 1.32941 22.523 0.798778 23.4373C0.264994 24.3534 0 25.4203 0 26.645C0 27.8628 0.264994 28.9347 0.798778 29.8603C1.32941 30.7859 2.02219 31.5607 2.86829 32.1829C3.71503 32.8018 4.68229 33.2568 5.77258 33.5394C6.86412 33.8221 7.95439 34 9.06739 34C10.1545 34 11.0694 33.9243 11.9552 33.7508C12.8361 33.5741 13.6973 33.3198 14.3642 33.0656C14.3642 33.0656 15.1958 32.7242 16.1681 32.2043L14.2582 30.2869C13.8992 30.4812 13.4821 30.6831 13.002 30.8743C12.4474 31.0939 11.8265 31.2629 11.1489 31.4144C10.47 31.5664 9.52482 31.6434 8.87305 31.6434C8.16891 31.6434 7.47928 31.5279 6.80353 31.3008C6.12463 31.0718 5.51892 30.7342 4.98514 30.2869C4.45262 29.8427 4.02232 29.3057 3.69738 28.6868C3.36865 28.0659 3.20524 27.3618 3.20524 26.5781C3.20524 25.7913 3.34909 25.0942 3.64185 24.484C3.93019 23.8739 4.34347 23.3628 4.8741 22.9502C5.41103 22.5344 6.03314 22.2258 6.74927 22.0164C7.46161 21.8119 8.25535 21.7084 9.12417 21.7084C9.85103 21.7084 10.7962 21.7659 11.4019 21.8876C11.7325 21.952 12.0373 22.0258 12.3187 22.1059C12.3187 22.1059 13.137 22.3243 14.173 22.9615L16.0854 21.0409Z" fill="#00599D"/>
<path d="M125.237 20.5353C125.188 20.5498 125.119 20.5605 125.025 20.5605H124.83V20.115H125.014C125.137 20.115 125.225 20.127 125.28 20.1586C125.334 20.1888 125.362 20.25 125.362 20.3409C125.363 20.4343 125.32 20.4993 125.237 20.5353ZM125.487 20.746C125.441 20.6785 125.368 20.6394 125.273 20.6248C125.346 20.6122 125.408 20.5946 125.451 20.5649C125.533 20.5138 125.574 20.433 125.574 20.3213C125.574 20.1668 125.508 20.0627 125.38 20.009C125.309 19.9806 125.198 19.9674 125.047 19.9674H124.612V21.1996H124.83V20.7138H125.001C125.119 20.7138 125.198 20.7271 125.245 20.7529C125.322 20.799 125.358 20.8936 125.358 21.0356V21.134L125.366 21.1731C125.366 21.1788 125.366 21.1851 125.369 21.1883V21.2003H125.574L125.567 21.1851C125.562 21.1731 125.559 21.1523 125.556 21.1195V20.9372C125.556 20.8741 125.529 20.8116 125.487 20.746ZM126.03 20.5857C126.03 20.8551 125.937 21.0848 125.753 21.2741C125.562 21.464 125.335 21.5612 125.065 21.5612C124.797 21.5612 124.567 21.464 124.382 21.2741C124.194 21.0854 124.101 20.8551 124.101 20.5857C124.101 20.3195 124.197 20.0923 124.382 19.9037C124.572 19.7125 124.802 19.6185 125.065 19.6185C125.334 19.6185 125.562 19.7125 125.753 19.9037C125.937 20.0923 126.03 20.3195 126.03 20.5857ZM126.192 20.5845C126.192 20.2747 126.081 20.0103 125.862 19.7932C125.645 19.5718 125.377 19.4639 125.066 19.4639C124.758 19.4639 124.495 19.5718 124.276 19.7932C124.058 20.0103 123.947 20.2747 123.947 20.5845C123.947 20.8955 124.055 21.1631 124.271 21.3833C124.491 21.6028 124.755 21.7139 125.066 21.7139C125.377 21.7139 125.645 21.6028 125.862 21.3833C126.081 21.1618 126.192 20.8955 126.192 20.5845Z" fill="#00599D"/>
<path d="M105.998 19.4645L120.135 33.8262H124.051L109.901 19.4645H105.998Z" fill="#00599D"/>
<path d="M124.05 19.4645L109.913 33.8262H105.996L120.147 19.4645H124.05Z" fill="#00599D"/>
<path d="M39.2943 33.8457V19.4379H36.5219V29.8556L26.2986 19.4481V19.4379H23.5275V33.8457H26.2986V23.4577L36.5219 33.8425V33.8457H39.2943Z" fill="#00599D"/>
<path d="M91.2431 7.54706C91.2431 3.55566 79.7409 0.286079 65.1615 0.000259399L65.0372 1.10442C77.0568 1.38709 86.5084 4.28249 86.5084 7.81455C86.5084 11.4337 76.5962 14.3859 64.1595 14.5443L64.2466 15.1064C79.2594 14.9437 91.2431 11.6224 91.2431 7.54706Z" fill="#FFCB05"/>
<path d="M80.78 8.44758C80.78 11.1619 73.3405 13.3784 63.9854 13.5128L64.0724 14.0693C74.9721 13.9242 83.6552 11.3386 83.6552 8.17247C83.6552 5.08712 75.415 2.5551 64.9116 2.29073L64.7885 3.40187C73.76 3.64541 80.78 5.8121 80.78 8.44758Z" fill="#FFCB05"/>
<path d="M77.9489 8.79141C77.9489 6.60516 72.1272 4.80631 64.663 4.58421L64.5387 5.69407C70.4879 5.89472 75.1034 7.32696 75.1034 9.06776C75.1034 10.8805 70.1062 12.3607 63.8087 12.4623L63.8958 13.0156C71.7253 12.9027 77.9489 11.054 77.9489 8.79141Z" fill="#FFCB05"/>
<path d="M34.9471 7.54706C34.9471 3.55566 46.4494 0.286079 61.0319 0.000259399L61.1549 1.10442C49.1341 1.38709 39.6824 4.28249 39.6824 7.81455C39.6824 11.4337 49.5947 14.3859 62.0313 14.5443L61.9442 15.1064C46.932 14.9437 34.9471 11.6224 34.9471 7.54706Z" fill="#FFCB05"/>
<path d="M45.4096 8.44758C45.4096 11.1619 52.8517 13.3784 62.2043 13.5128L62.1178 14.0693C51.2181 13.9242 42.5356 11.3386 42.5356 8.17247C42.5356 5.08712 50.7759 2.5551 61.2793 2.29073L61.4049 3.40187C52.4296 3.64541 45.4096 5.8121 45.4096 8.44758Z" fill="#FFCB05"/>
<path d="M48.2426 8.79141C48.2426 6.60516 54.0631 4.80631 61.5272 4.58421L61.6509 5.69407C55.7029 5.89472 51.0869 7.32696 51.0869 9.06776C51.0869 10.8805 56.0846 12.3607 62.3809 12.4623L62.2938 13.0156C54.465 12.9027 48.2426 11.054 48.2426 8.79141Z" fill="#FFCB05"/>
</svg>
