<svg width="182" height="20" viewBox="0 0 182 20" fill="none" xmlns="http://www.w3.org/2000/svg">
<path d="M19.0525 14.9493H18.8357C18.7837 14.9493 18.7403 14.9778 18.7201 15.0192C17.639 17.4995 15.4507 18.8665 12.56 18.8665H6.01263V12.8134H8.99581C11.7217 12.8134 13.4272 13.8982 13.4446 15.6458C13.4446 15.7053 13.4995 15.7545 13.5689 15.7545H13.7857C13.8551 15.7545 13.91 15.7053 13.91 15.6432V9.59794C13.91 9.53581 13.8551 9.48662 13.7857 9.48662H13.5689C13.4995 9.48662 13.4446 9.53581 13.4446 9.59794C13.4446 11.519 12.031 12.4122 8.99581 12.4122H6.01263V6.72936H12.5398C14.7569 6.72936 16.6677 8.10152 17.6505 10.3979C17.6679 10.4419 17.7141 10.4678 17.7662 10.4678H17.983C18.0205 10.4678 18.0581 10.4523 18.0812 10.4238C18.1044 10.3953 18.113 10.3591 18.1015 10.3254L16.7746 6.17791C16.7602 6.13131 16.7111 6.09766 16.6561 6.09766H16.4393C16.4046 6.09766 16.3728 6.1106 16.3468 6.1339C16.3353 6.14426 16.3266 6.15979 16.3208 6.17274C16.0462 6.30995 13.9418 6.30995 12.5398 6.30995H8.46104C7.99853 6.30995 7.16312 6.31772 6.32193 6.32807C5.47496 6.33584 4.62221 6.3462 4.14524 6.3462C3.67117 6.3462 2.90514 6.33843 2.13622 6.32807C1.36729 6.32031 0.601262 6.30995 0.124299 6.30995C0.0549228 6.30995 0 6.35914 0 6.42128V6.61545C0 6.67759 0.0549228 6.72678 0.124299 6.72678H2.23739V18.8613H0.124299C0.0549228 18.8613 0 18.9105 0 18.9726V19.1668C0 19.2289 0.0549228 19.2781 0.124299 19.2781C0.581028 19.2781 1.35284 19.2703 2.12465 19.26C2.89647 19.2522 3.66828 19.2419 4.12212 19.2419C4.59908 19.2419 5.43738 19.2496 6.2699 19.26C7.09374 19.2677 7.9147 19.2781 8.37721 19.2781H12.5542C14.3869 19.2781 16.6619 19.2781 16.925 19.4697C16.925 19.493 16.9336 19.5189 16.951 19.537C16.9741 19.5629 17.0088 19.5784 17.0493 19.5784H17.2661C17.3181 19.5784 17.3643 19.5499 17.3817 19.5059L19.1624 15.0917C19.1768 15.0581 19.171 15.0192 19.1479 14.9908C19.1248 14.9623 19.093 14.9493 19.0525 14.9493Z" fill="#212D69"/>
<path d="M51.2201 16.7929H51.0033C50.9339 16.7929 50.879 16.8421 50.879 16.9042C50.879 18.2712 49.529 18.8848 48.5693 18.8848C47.0459 18.8848 46.6268 17.4634 46.2192 16.0913C46.173 15.9308 46.1238 15.7728 46.0776 15.6175C45.5919 14.0382 44.1148 13.3625 42.7302 13.0855C45.3838 12.6635 46.6759 11.5891 46.6759 9.81563C46.6759 6.29981 41.5247 6.2998 37.764 6.2998H27.0164C26.947 6.2998 26.8921 6.349 26.8921 6.41113V6.6053C26.8921 6.66744 26.947 6.71663 27.0164 6.71663H29.4272V18.8693H27.0164C26.947 18.8693 26.8921 18.9184 26.8921 18.9806V19.1748C26.8921 19.2369 26.947 19.2861 27.0164 19.2861C27.7044 19.2861 28.4184 19.2783 29.1353 19.268C29.8608 19.2602 30.5951 19.2498 31.3119 19.2498C31.9999 19.2498 32.7168 19.2576 33.4366 19.268C34.1708 19.2757 34.908 19.2861 35.6249 19.2861C35.6942 19.2861 35.7492 19.2369 35.7492 19.1748V18.9806C35.7492 18.9184 35.6942 18.8693 35.6249 18.8693H33.214V13.347H38.4751C40.7067 13.347 41.4207 14.7217 41.8601 16.2078C42.4584 18.2117 43.0741 19.4414 46.5863 19.5864C46.6759 19.589 46.7945 19.5942 46.9361 19.5942C47.8091 19.5942 49.5522 19.4751 50.5726 18.6C51.0871 18.1599 51.3473 17.5903 51.3473 16.9068C51.3444 16.8421 51.2895 16.7929 51.2201 16.7929ZM33.2111 6.71404H37.7582C40.036 6.71404 42.3659 7.08167 42.3659 9.81304C42.3659 12.5522 40.1517 12.9276 37.7582 12.9276H33.2111V6.71404Z" fill="#212D69"/>
<path d="M77.7652 14.9493H77.5484C77.4964 14.9493 77.453 14.9778 77.4328 15.0192C76.3517 17.4995 74.1634 18.8665 71.2727 18.8665H64.7253V12.8134H67.7085C70.4344 12.8134 72.1399 13.8982 72.1573 15.6458C72.1573 15.7053 72.2122 15.7545 72.2816 15.7545H72.4984C72.5677 15.7545 72.6227 15.7053 72.6227 15.6432V9.59794C72.6227 9.53581 72.5677 9.48662 72.4984 9.48662H72.2816C72.2122 9.48662 72.1573 9.53581 72.1573 9.59794C72.1573 11.519 70.7437 12.4122 67.7085 12.4122H64.7253V6.72936H71.2525C73.4696 6.72936 75.3804 8.10152 76.3632 10.3979C76.3806 10.4419 76.4268 10.4678 76.4788 10.4678H76.6956C76.7332 10.4678 76.7708 10.4523 76.7939 10.4238C76.817 10.3953 76.8257 10.3591 76.8142 10.3254L75.4873 6.17791C75.4729 6.13131 75.4237 6.09766 75.3688 6.09766H75.152C75.1173 6.09766 75.0855 6.1106 75.0595 6.1339C75.0479 6.14426 75.0393 6.15979 75.0335 6.17274C74.7589 6.30995 72.6545 6.30995 71.2525 6.30995H67.1737C66.7112 6.30995 65.8758 6.31772 65.0346 6.32807C64.1876 6.33584 63.3349 6.3462 62.8579 6.3462C62.3839 6.3462 61.6178 6.33843 60.8518 6.32807C60.0829 6.32031 59.3168 6.30995 58.8399 6.30995C58.7705 6.30995 58.7156 6.35914 58.7156 6.42128V6.61545C58.7156 6.67759 58.7705 6.72678 58.8399 6.72678H60.953V18.8613H58.8399C58.7705 18.8613 58.7156 18.9105 58.7156 18.9726V19.1668C58.7156 19.2289 58.7705 19.2781 58.8399 19.2781C59.2966 19.2781 60.0684 19.2703 60.8402 19.26C61.612 19.2522 62.3839 19.2419 62.8377 19.2419C63.3147 19.2419 64.153 19.2496 64.9855 19.26C65.8093 19.2677 66.6303 19.2781 67.0928 19.2781H71.2698C73.1025 19.2781 75.3775 19.2781 75.6405 19.4697C75.6405 19.493 75.6492 19.5189 75.6666 19.537C75.6897 19.5629 75.7244 19.5784 75.7648 19.5784H75.9816C76.0337 19.5784 76.0799 19.5499 76.0973 19.5059L77.8779 15.0917C77.8924 15.0581 77.8866 15.0192 77.8635 14.9908C77.8432 14.9675 77.8057 14.9493 77.7652 14.9493Z" fill="#212D69"/>
<path d="M107.646 12.7895C107.646 8.34162 102.359 6.31445 97.4478 6.31445H93.609C93.0453 6.31445 92.4065 6.32222 91.7647 6.33258C91.1259 6.34034 90.4899 6.3507 89.9263 6.3507C89.3741 6.3507 88.6515 6.34293 87.9259 6.33258C87.1917 6.32481 86.4546 6.31445 85.888 6.31445C85.8186 6.31445 85.7637 6.36364 85.7637 6.42578V6.61995C85.7637 6.68209 85.8186 6.73128 85.888 6.73128H88.0011V18.8658H85.888C85.8186 18.8658 85.7637 18.915 85.7637 18.9771V19.1713C85.7637 19.2334 85.8186 19.2826 85.888 19.2826C86.4112 19.2826 87.1281 19.2748 87.8507 19.2645C88.5792 19.2567 89.3106 19.2464 89.8453 19.2464C90.3657 19.2464 91.0363 19.2541 91.7069 19.2645C92.3862 19.2722 93.0684 19.2826 93.6061 19.2826H97.4449C99.9685 19.2826 102.446 18.7441 104.244 17.8043C106.47 16.6444 107.646 14.9098 107.646 12.7895ZM103.339 12.7895C103.339 16.9862 100.388 18.8658 97.4652 18.8658H91.7705V6.73128H97.4652C100.391 6.73128 103.339 8.60569 103.339 12.7895Z" fill="#212D69"/>
<path d="M124.487 19.1713V18.9771C124.487 18.915 124.432 18.8658 124.363 18.8658H121.952V6.73128H124.363C124.432 6.73128 124.487 6.68209 124.487 6.61995V6.42578C124.487 6.36364 124.432 6.31445 124.363 6.31445C123.661 6.31445 122.932 6.32222 122.204 6.33258C121.478 6.34034 120.75 6.3507 120.047 6.3507C119.342 6.3507 118.619 6.34293 117.897 6.33258C117.18 6.32481 116.463 6.31445 115.772 6.31445C115.703 6.31445 115.648 6.36364 115.648 6.42578V6.61995C115.648 6.68209 115.703 6.73128 115.772 6.73128H118.183V18.8658H115.772C115.703 18.8658 115.648 18.915 115.648 18.9771V19.1713C115.648 19.2334 115.703 19.2826 115.772 19.2826C116.463 19.2826 117.18 19.2748 117.897 19.2645C118.619 19.2567 119.342 19.2464 120.047 19.2464C120.75 19.2464 121.475 19.2541 122.204 19.2645C122.932 19.2722 123.661 19.2826 124.363 19.2826C124.432 19.2826 124.487 19.2334 124.487 19.1713Z" fill="#212D69"/>
<path d="M149.697 6.16479C149.683 6.11819 149.633 6.08453 149.579 6.08453H149.362C149.324 6.08453 149.289 6.10006 149.266 6.12336C149.258 6.13372 149.249 6.14666 149.243 6.15961C148.902 6.31495 146.043 6.31495 144.809 6.31495H136.475C135.533 6.31495 134.11 6.31495 133.986 6.1855C133.989 6.15443 133.978 6.12336 133.954 6.10265C133.931 6.07935 133.899 6.06641 133.865 6.06641H133.648C133.593 6.06641 133.544 6.10006 133.529 6.14666L132.223 10.3304C132.211 10.3641 132.22 10.4003 132.243 10.4262C132.266 10.4547 132.304 10.4702 132.341 10.4702H132.558C132.61 10.4702 132.654 10.4418 132.674 10.4003C133.709 8.02108 134.914 6.72918 138.319 6.72918H139.681V18.8637H137.27C137.201 18.8637 137.146 18.9129 137.146 18.975V19.1692C137.146 19.2313 137.201 19.2805 137.27 19.2805C137.958 19.2805 138.672 19.2727 139.389 19.2624C140.114 19.2546 140.849 19.2443 141.566 19.2443C142.256 19.2443 142.973 19.252 143.696 19.2624C144.424 19.2702 145.156 19.2805 145.861 19.2805C145.931 19.2805 145.985 19.2313 145.985 19.1692V18.975C145.985 18.9129 145.931 18.8637 145.861 18.8637H143.471V6.72918H144.93C148.038 6.72918 149.665 7.79066 150.553 10.3926C150.567 10.4392 150.616 10.4702 150.671 10.4702H150.888C150.926 10.4702 150.963 10.4547 150.986 10.4262C151.009 10.3978 151.018 10.3615 151.007 10.3304L149.697 6.16479Z" fill="#212D69"/>
<path d="M181.625 18.8658H179.179L170.683 6.4206C170.675 6.41024 170.666 6.39989 170.657 6.39212C170.643 6.34552 170.594 6.31445 170.539 6.31445C170.27 6.31445 169.993 6.32222 169.712 6.33258C169.437 6.34034 169.16 6.3507 168.894 6.3507C168.637 6.3507 167.475 6.34293 166.313 6.33258C165.148 6.32481 163.986 6.31445 163.728 6.31445C163.659 6.31445 163.604 6.36364 163.604 6.42578V6.61995C163.604 6.68209 163.659 6.73128 163.728 6.73128H166.515L158.175 18.8658H155.71C155.64 18.8658 155.585 18.915 155.585 18.9771V19.1713C155.585 19.1998 155.6 19.2282 155.623 19.2489C155.646 19.2697 155.678 19.2826 155.71 19.2826C156.403 19.2826 156.707 19.2748 156.999 19.2645C157.294 19.2567 157.6 19.2464 158.303 19.2464C159.002 19.2464 159.346 19.2541 159.676 19.2645C160.008 19.2722 160.349 19.2826 161.054 19.2826C161.086 19.2826 161.118 19.2697 161.141 19.2489C161.164 19.2282 161.179 19.1998 161.179 19.1713V18.9771C161.179 18.915 161.124 18.8658 161.054 18.8658H158.722L161.54 14.7623H172.149L174.947 18.8658H172.594C172.525 18.8658 172.47 18.915 172.47 18.9771V19.1713C172.47 19.2334 172.525 19.2826 172.594 19.2826C173.542 19.2826 174.329 19.2722 175.089 19.2645C175.768 19.2567 176.413 19.2489 177.106 19.2489C177.667 19.2489 178.549 19.2593 179.419 19.2671C180.266 19.2748 181.101 19.2852 181.619 19.2852C181.688 19.2852 181.743 19.236 181.743 19.1739V18.9797C181.749 18.915 181.694 18.8658 181.625 18.8658ZM171.866 14.3454H161.838L166.882 7.02642L171.866 14.3454Z" fill="#212D69"/>
<path d="M162.968 2.52207C162.653 2.42627 162.266 2.12078 162.147 1.80233C161.977 1.33114 162.127 0.787456 162.488 0.432767C162.659 0.259306 162.87 0.135035 163.101 0.0677222C163.607 -0.0798491 164.2 0.0185318 164.541 0.316263L169.209 4.39907L169.018 4.45344L162.968 2.52207Z" fill="#212D69"/>
</svg>
