<svg xmlns="http://www.w3.org/2000/svg" viewBox="0 0 183 20" fill="none" style="&#10;    width: 100%;&#10;    height: auto;&#10;">
<path d="M19.6768 14.9493H19.46C19.4079 14.9493 19.3646 14.9778 19.3443 15.0192C18.2632 17.4995 16.075 18.8665 13.1843 18.8665H6.63689V12.8134H9.62008C12.346 12.8134 14.0515 13.8982 14.0688 15.6458C14.0688 15.7053 14.1238 15.7545 14.1931 15.7545H14.4099C14.4793 15.7545 14.5342 15.7053 14.5342 15.6432V9.59794C14.5342 9.53581 14.4793 9.48662 14.4099 9.48662H14.1931C14.1238 9.48662 14.0688 9.53581 14.0688 9.59794C14.0688 11.519 12.6553 12.4122 9.62008 12.4122H6.63689V6.72936H13.1641C15.3812 6.72936 17.292 8.10152 18.2748 10.3979C18.2921 10.4419 18.3384 10.4678 18.3904 10.4678H18.6072C18.6448 10.4678 18.6824 10.4523 18.7055 10.4238C18.7286 10.3953 18.7373 10.3591 18.7257 10.3254L17.3989 6.17791C17.3845 6.13131 17.3353 6.09766 17.2804 6.09766H17.0636C17.0289 6.09766 16.9971 6.1106 16.9711 6.1339C16.9595 6.14426 16.9509 6.15979 16.9451 6.17274C16.6705 6.30995 14.566 6.30995 13.1641 6.30995H9.0853C8.62279 6.30995 7.78739 6.31772 6.9462 6.32807C6.09923 6.33584 5.24647 6.3462 4.76951 6.3462C4.29544 6.3462 3.52941 6.33843 2.76048 6.32807C1.99156 6.32031 1.22553 6.30995 0.748567 6.30995C0.67919 6.30995 0.624268 6.35914 0.624268 6.42128V6.61545C0.624268 6.67759 0.67919 6.72678 0.748567 6.72678H2.86166V18.8613H0.748567C0.67919 18.8613 0.624268 18.9105 0.624268 18.9726V19.1668C0.624268 19.2289 0.67919 19.2781 0.748567 19.2781C1.2053 19.2781 1.97711 19.2703 2.74892 19.26C3.52073 19.2522 4.29255 19.2419 4.74638 19.2419C5.22335 19.2419 6.06165 19.2496 6.89417 19.26C7.71801 19.2677 8.53896 19.2781 9.00147 19.2781H13.1785C15.0112 19.2781 17.2862 19.2781 17.5492 19.4697C17.5492 19.493 17.5579 19.5189 17.5752 19.537C17.5984 19.5629 17.6331 19.5784 17.6735 19.5784H17.8903C17.9424 19.5784 17.9886 19.5499 18.006 19.5059L19.7866 15.0917C19.8011 15.0581 19.7953 15.0192 19.7722 14.9908C19.749 14.9623 19.7172 14.9493 19.6768 14.9493Z" fill="#E9EAF0"/>
<path d="M51.8444 16.7924H51.6276C51.5582 16.7924 51.5033 16.8416 51.5033 16.9037C51.5033 18.2707 50.1533 18.8843 49.1936 18.8843C47.6702 18.8843 47.2511 17.463 46.8435 16.0908C46.7972 15.9303 46.7481 15.7724 46.7018 15.617C46.2162 14.0377 44.7391 13.362 43.3544 13.085C46.0081 12.663 47.3002 11.5886 47.3002 9.81514C47.3002 6.29932 42.149 6.29932 38.3882 6.29932H27.6407C27.5713 6.29932 27.5164 6.34851 27.5164 6.41064V6.60481C27.5164 6.66695 27.5713 6.71614 27.6407 6.71614H30.0515V18.8688H27.6407C27.5713 18.8688 27.5164 18.918 27.5164 18.9801V19.1743C27.5164 19.2364 27.5713 19.2856 27.6407 19.2856C28.3286 19.2856 29.0426 19.2778 29.7595 19.2675C30.4851 19.2597 31.2193 19.2493 31.9362 19.2493C32.6242 19.2493 33.3411 19.2571 34.0609 19.2675C34.7951 19.2752 35.5322 19.2856 36.2491 19.2856C36.3185 19.2856 36.3734 19.2364 36.3734 19.1743V18.9801C36.3734 18.918 36.3185 18.8688 36.2491 18.8688H33.8383V13.3465H39.0993C41.3309 13.3465 42.0449 14.7212 42.4843 16.2073C43.0827 18.2112 43.6984 19.4409 47.2106 19.5859C47.3002 19.5885 47.4187 19.5937 47.5604 19.5937C48.4334 19.5937 50.1764 19.4746 51.1969 18.5995C51.7114 18.1594 51.9716 17.5898 51.9716 16.9063C51.9687 16.8416 51.9137 16.7924 51.8444 16.7924ZM33.8354 6.71355H38.3824C40.6603 6.71355 42.9902 7.08119 42.9902 9.81255C42.9902 12.5517 40.7759 12.9271 38.3824 12.9271H33.8354V6.71355V6.71355Z" fill="#E9EAF0"/>
<path d="M78.3895 14.9493H78.1727C78.1206 14.9493 78.0773 14.9778 78.057 15.0192C76.9759 17.4995 74.7877 18.8665 71.897 18.8665H65.3496V12.8134H68.3328C71.0587 12.8134 72.7642 13.8982 72.7815 15.6458C72.7815 15.7053 72.8365 15.7545 72.9058 15.7545H73.1226C73.192 15.7545 73.2469 15.7053 73.2469 15.6432V9.59794C73.2469 9.53581 73.192 9.48662 73.1226 9.48662H72.9058C72.8365 9.48662 72.7815 9.53581 72.7815 9.59794C72.7815 11.519 71.368 12.4122 68.3328 12.4122H65.3496V6.72936H71.8767C74.0939 6.72936 76.0046 8.10152 76.9875 10.3979C77.0048 10.4419 77.0511 10.4678 77.1031 10.4678H77.3199C77.3575 10.4678 77.3951 10.4523 77.4182 10.4238C77.4413 10.3953 77.45 10.3591 77.4384 10.3254L76.1116 6.17791C76.0971 6.13131 76.048 6.09766 75.9931 6.09766H75.7763C75.7416 6.09766 75.7098 6.1106 75.6838 6.1339C75.6722 6.14426 75.6635 6.15979 75.6578 6.17274C75.3831 6.30995 73.2787 6.30995 71.8767 6.30995H67.798C67.3355 6.30995 66.5001 6.31772 65.6589 6.32807C64.8119 6.33584 63.9592 6.3462 63.4822 6.3462C63.0081 6.3462 62.2421 6.33843 61.4761 6.32807C60.7071 6.32031 59.9411 6.30995 59.4641 6.30995C59.3948 6.30995 59.3398 6.35914 59.3398 6.42128V6.61545C59.3398 6.67759 59.3948 6.72678 59.4641 6.72678H61.5772V18.8613H59.4641C59.3948 18.8613 59.3398 18.9105 59.3398 18.9726V19.1668C59.3398 19.2289 59.3948 19.2781 59.4641 19.2781C59.9209 19.2781 60.6927 19.2703 61.4645 19.26C62.2363 19.2522 63.0081 19.2419 63.462 19.2419C63.9389 19.2419 64.7772 19.2496 65.6097 19.26C66.4336 19.2677 67.2545 19.2781 67.7171 19.2781H71.8941C73.7268 19.2781 76.0018 19.2781 76.2648 19.4697C76.2648 19.493 76.2735 19.5189 76.2908 19.537C76.3139 19.5629 76.3486 19.5784 76.3891 19.5784H76.6059C76.6579 19.5784 76.7042 19.5499 76.7215 19.5059L78.5022 15.0917C78.5166 15.0581 78.5109 15.0192 78.4877 14.9908C78.4675 14.9675 78.4299 14.9493 78.3895 14.9493Z" fill="#E9EAF0"/>
<path d="M108.27 12.79C108.27 8.3421 102.983 6.31494 98.0721 6.31494H94.2333C93.6696 6.31494 93.0307 6.32271 92.389 6.33306C91.7502 6.34083 91.1142 6.35119 90.5505 6.35119C89.9984 6.35119 89.2757 6.34342 88.5502 6.33306C87.8159 6.3253 87.0788 6.31494 86.5122 6.31494C86.4429 6.31494 86.3879 6.36413 86.3879 6.42627V6.62044C86.3879 6.68258 86.4429 6.73177 86.5122 6.73177H88.6253V18.8663H86.5122C86.4429 18.8663 86.3879 18.9155 86.3879 18.9776V19.1718C86.3879 19.2339 86.4429 19.2831 86.5122 19.2831C87.0355 19.2831 87.7523 19.2753 88.475 19.265C89.2035 19.2572 89.9348 19.2468 90.4696 19.2468C90.9899 19.2468 91.6606 19.2546 92.3312 19.265C93.0105 19.2727 93.6927 19.2831 94.2304 19.2831H98.0692C100.593 19.2831 103.07 18.7446 104.868 17.8048C107.094 16.6449 108.27 14.9103 108.27 12.79ZM103.963 12.79C103.963 16.9867 101.012 18.8663 98.0894 18.8663H92.3948V6.73177H98.0894C101.015 6.73177 103.963 8.60618 103.963 12.79Z" fill="#E9EAF0"/>
<path d="M125.112 19.1718V18.9776C125.112 18.9155 125.057 18.8663 124.987 18.8663H122.577V6.73177H124.987C125.057 6.73177 125.112 6.68258 125.112 6.62044V6.42627C125.112 6.36413 125.057 6.31494 124.987 6.31494C124.285 6.31494 123.557 6.32271 122.828 6.33306C122.102 6.34083 121.374 6.35119 120.672 6.35119C119.966 6.35119 119.244 6.34342 118.521 6.33306C117.804 6.3253 117.087 6.31494 116.396 6.31494C116.327 6.31494 116.272 6.36413 116.272 6.42627V6.62044C116.272 6.68258 116.327 6.73177 116.396 6.73177H118.807V18.8663H116.396C116.327 18.8663 116.272 18.9155 116.272 18.9776V19.1718C116.272 19.2339 116.327 19.2831 116.396 19.2831C117.087 19.2831 117.804 19.2753 118.521 19.265C119.244 19.2572 119.966 19.2468 120.672 19.2468C121.374 19.2468 122.1 19.2546 122.828 19.265C123.557 19.2727 124.285 19.2831 124.987 19.2831C125.057 19.2831 125.112 19.2339 125.112 19.1718Z" fill="#E9EAF0"/>
<path d="M150.321 6.16479C150.307 6.11819 150.258 6.08453 150.203 6.08453H149.986C149.948 6.08453 149.914 6.10006 149.891 6.12336C149.882 6.13372 149.873 6.14666 149.867 6.15961C149.526 6.31495 146.668 6.31495 145.433 6.31495H137.099C136.157 6.31495 134.735 6.31495 134.61 6.1855C134.613 6.15443 134.602 6.12336 134.579 6.10265C134.556 6.07935 134.524 6.06641 134.489 6.06641H134.272C134.217 6.06641 134.168 6.10006 134.154 6.14666L132.847 10.3304C132.836 10.3641 132.844 10.4003 132.867 10.4262C132.891 10.4547 132.928 10.4702 132.966 10.4702H133.182C133.234 10.4702 133.278 10.4418 133.298 10.4003C134.333 8.02108 135.538 6.72918 138.944 6.72918H140.305V18.8637H137.894C137.825 18.8637 137.77 18.9129 137.77 18.975V19.1692C137.77 19.2313 137.825 19.2805 137.894 19.2805C138.582 19.2805 139.296 19.2727 140.013 19.2624C140.739 19.2546 141.473 19.2443 142.19 19.2443C142.881 19.2443 143.598 19.252 144.32 19.2624C145.049 19.2702 145.78 19.2805 146.485 19.2805C146.555 19.2805 146.61 19.2313 146.61 19.1692V18.975C146.61 18.9129 146.555 18.8637 146.485 18.8637H144.095V6.72918H145.555C148.662 6.72918 150.29 7.79066 151.177 10.3926C151.191 10.4392 151.241 10.4702 151.295 10.4702H151.512C151.55 10.4702 151.587 10.4547 151.611 10.4262C151.634 10.3978 151.642 10.3615 151.631 10.3304L150.321 6.16479Z" fill="#E9EAF0"/>
<path d="M182.249 18.8663H179.803L171.308 6.42109C171.299 6.41073 171.29 6.40038 171.282 6.39261C171.267 6.34601 171.218 6.31494 171.163 6.31494C170.894 6.31494 170.617 6.32271 170.336 6.33306C170.062 6.34083 169.784 6.35119 169.518 6.35119C169.261 6.35119 168.099 6.34342 166.937 6.33306C165.772 6.3253 164.61 6.31494 164.353 6.31494C164.283 6.31494 164.228 6.36413 164.228 6.42627V6.62044C164.228 6.68258 164.283 6.73177 164.353 6.73177H167.139L158.8 18.8663H156.334C156.264 18.8663 156.209 18.9155 156.209 18.9776V19.1718C156.209 19.2002 156.224 19.2287 156.247 19.2494C156.27 19.2701 156.302 19.2831 156.334 19.2831C157.028 19.2831 157.331 19.2753 157.623 19.265C157.918 19.2572 158.224 19.2468 158.927 19.2468C159.626 19.2468 159.97 19.2546 160.3 19.265C160.632 19.2727 160.973 19.2831 161.679 19.2831C161.71 19.2831 161.742 19.2701 161.765 19.2494C161.789 19.2287 161.803 19.2002 161.803 19.1718V18.9776C161.803 18.9155 161.748 18.8663 161.679 18.8663H159.346L162.164 14.7628H172.773L175.571 18.8663H173.218C173.149 18.8663 173.094 18.9155 173.094 18.9776V19.1718C173.094 19.2339 173.149 19.2831 173.218 19.2831C174.166 19.2831 174.953 19.2727 175.713 19.265C176.392 19.2572 177.037 19.2494 177.731 19.2494C178.291 19.2494 179.173 19.2598 180.043 19.2676C180.89 19.2753 181.726 19.2857 182.243 19.2857C182.312 19.2857 182.367 19.2365 182.367 19.1744V18.9802C182.373 18.9155 182.318 18.8663 182.249 18.8663ZM172.49 14.3459H162.462L167.506 7.02691L172.49 14.3459Z" fill="#E9EAF0"/>
<path d="M163.593 2.52207C163.277 2.42627 162.89 2.12078 162.772 1.80233C162.601 1.33114 162.751 0.787456 163.113 0.432767C163.283 0.259306 163.494 0.135035 163.726 0.0677222C164.231 -0.0798491 164.824 0.0185318 165.165 0.316263L169.834 4.39907L169.643 4.45344L163.593 2.52207Z" fill="#E9EAF0"/>
</svg>