<svg xmlns="http://www.w3.org/2000/svg" viewBox="0 0 46 36" style="&#10;    height: auto;&#10;    width: 100%;&#10;">
<path d="M2.32024 26.1453C2.67666 26.798 3.05813 26.9157 3.36461 27.0107C3.4629 27.0418 3.54805 27.0678 3.62642 27.1115C3.8015 27.2097 3.97192 27.3588 4.13299 27.5551C7.63359 31.8217 8.17982 32.3634 10.7541 32.2634C11.9866 32.216 14.1224 31.4283 16.0687 30.3046C17.5864 29.4284 19.6632 27.9629 20.9373 25.9595C22.7931 23.0401 21.0207 17.6848 20.9282 17.4173C20.9168 17.3915 20.6657 16.7754 21.8791 16.0748L21.8804 16.0741L21.9543 16.0306C23.1054 15.366 23.5146 15.8916 23.5585 15.9484C23.7168 16.1283 27.4682 20.3399 30.9247 20.1932C33.2973 20.0922 35.6044 19.0257 37.1221 18.1494C39.0684 17.0257 40.8177 15.5694 41.4755 14.5264C42.8495 12.3468 42.6531 11.6023 40.708 6.43761C40.6188 6.20069 40.5754 5.97845 40.5775 5.77713C40.5786 5.68752 40.5984 5.60073 40.6208 5.49999C40.6918 5.1871 40.7805 4.79688 40.3937 4.1628C40.3289 4.0566 40.2229 3.86229 40.1061 3.64963C39.9287 3.32438 39.7272 2.95903 39.6038 2.77075C38.9974 1.84913 37.9292 1.94797 37.4646 2.12405C34.4269 3.13416 31.0733 4.85494 27.774 7.08928L27.6017 7.20582C25.588 8.56652 24.4788 9.31579 23.4569 10.7286C23.2199 11.0566 22.9846 11.4086 22.7797 11.7263C22.4157 12.2924 21.8345 13.014 21.4832 13.3344C21.3422 13.4639 21.1985 13.594 21.0701 13.707C20.8854 13.8703 20.4807 14.1039 20.247 14.1822C20.0845 14.2363 19.9004 14.2963 19.7174 14.3539C19.2653 14.4974 18.3497 14.6399 17.677 14.6723C17.2998 14.6909 16.8774 14.7185 16.4745 14.7599C14.7401 14.9384 13.5369 15.5242 11.3516 16.5878L11.1642 16.679C7.57904 18.4204 4.40764 20.4675 2.03133 22.5788C1.63518 22.903 1.01605 23.7785 1.51099 24.7645C1.61127 24.966 1.82779 25.3228 2.02031 25.6391C2.14577 25.8478 2.26114 26.0372 2.32024 26.1453ZM38.9357 3.44307L39.3431 4.14875L38.2606 4.30347L38.9357 3.44307ZM24.2802 13.2543C24.2226 12.8474 24.4248 11.2642 29.4441 7.96313C30.3242 7.38454 31.0816 6.91265 31.7601 6.52092C34.8227 4.75275 36.1153 4.74061 37.2077 5.29378C37.8615 5.62459 38.7391 6.5996 39.1484 7.3025C40.0431 8.8371 41.3124 11.7501 39.7762 14.0155C39.0721 15.0533 37.7697 16.1823 36.2928 17.035C33.4578 18.6718 30.6353 19.0163 28.7444 17.9565C24.7685 15.7315 24.288 13.3251 24.2802 13.2543ZM4.89052 23.9515C4.95822 22.728 5.61501 21.6151 8.67719 19.8472C9.35594 19.4553 10.1433 19.0353 11.0845 18.5624C16.4521 15.8672 17.9252 16.4833 18.2867 16.7659C18.3052 16.7795 20.1498 18.3993 20.0905 22.9531C20.0618 25.1212 18.353 27.3929 15.5184 29.0295C14.0409 29.8825 12.4118 30.446 11.1607 30.537C8.43061 30.7348 6.5429 28.1788 5.66087 26.6369C5.25622 25.9299 4.85051 24.6828 4.89052 23.9515ZM2.42357 24.5234L3.5058 24.369L2.83092 25.2289L2.42357 24.5234Z" fill="black"/>
</svg>