<svg width="30" height="30" viewBox="0 0 30 30" fill="none" xmlns="http://www.w3.org/2000/svg">
<path d="M15.004 9.99787C17.7583 9.99787 20.0061 12.2456 20.0061 15C20.0061 17.7544 17.7583 20.0021 15.004 20.0021C12.2497 20.0021 10.002 17.7544 10.002 15C10.002 12.2456 12.2497 9.99787 15.004 9.99787ZM0.00167465 15C0.00167465 12.9286 -0.0170898 10.876 0.0992374 8.80832C0.215563 6.40669 0.763424 4.27525 2.51958 2.51907C4.27948 0.759128 6.40713 0.215011 8.80871 0.098682C10.8801 -0.0176466 12.9327 0.00111617 15.0003 0.00111617C17.0716 0.00111617 19.1242 -0.0176466 21.1918 0.098682C23.5934 0.215011 25.7248 0.762881 27.481 2.51907C29.2409 4.27901 29.785 6.40669 29.9013 8.80832C30.0176 10.8797 29.9989 12.9324 29.9989 15C29.9989 17.0676 30.0176 19.124 29.9013 21.1917C29.785 23.5933 29.2371 25.7247 27.481 27.4809C25.7211 29.2409 23.5934 29.785 21.1918 29.9013C19.1205 30.0176 17.0679 29.9989 15.0003 29.9989C12.9289 29.9989 10.8763 30.0176 8.80871 29.9013C6.40713 29.785 4.27573 29.2371 2.51958 27.4809C0.75967 25.721 0.215563 23.5933 0.0992374 21.1917C-0.0208416 19.124 0.00167465 17.0714 0.00167465 15ZM15.004 22.6964C19.2631 22.6964 22.7003 19.2591 22.7003 15C22.7003 10.7409 19.2631 7.30355 15.004 7.30355C10.745 7.30355 7.30773 10.7409 7.30773 15C7.30773 19.2591 10.745 22.6964 15.004 22.6964ZM6.99252 8.7858C7.98692 8.7858 8.78995 7.98276 8.78995 6.98834C8.78995 5.99392 7.98692 5.19087 6.99252 5.19087C5.99811 5.19087 5.19509 5.99392 5.19509 6.98834C5.19479 7.22447 5.24108 7.45834 5.3313 7.67655C5.42153 7.89476 5.55392 8.09303 5.72088 8.26C5.88785 8.42697 6.08611 8.55936 6.30432 8.64958C6.52253 8.73981 6.75639 8.7861 6.99252 8.7858Z" fill="white"/>
</svg>
