<svg width="31" height="19" viewBox="0 0 31 19" fill="none" xmlns="http://www.w3.org/2000/svg">
<path fill-rule="evenodd" clip-rule="evenodd" d="M9.38212 18.4099C9.67234 18.1143 9.66298 17.6471 9.38212 17.3325L3.16575 10.2387H29.81C30.2219 10.2387 30.559 9.89543 30.559 9.4759C30.559 9.05638 30.2219 8.71313 29.81 8.71313H3.16575L9.37276 1.61932C9.64426 1.29515 9.67234 0.847016 9.38212 0.551441C9.0919 0.255866 8.58635 0.236796 8.31485 0.541906C8.31485 0.541906 0.900148 8.83708 0.825253 8.93242C0.750357 9.02777 0.600567 9.1994 0.600567 9.4759C0.600567 9.75241 0.750357 9.9431 0.825253 10.0194C0.900148 10.0957 8.31485 18.4099 8.31485 18.4099C8.45528 18.5529 8.65188 18.6292 8.84849 18.6292C9.04509 18.6292 9.23233 18.5529 9.38212 18.4099Z" fill="black" fill-opacity="0.87"/>
</svg>
