<svg xmlns="http://www.w3.org/2000/svg" viewBox="0 0 364 44" fill="none" style="width: inherit;height: auto;">
<path d="M19.6765 25.9493H19.4597C19.4077 25.9493 19.3643 25.9778 19.3441 26.0192C18.263 28.4995 16.0747 29.8665 13.1841 29.8665H6.63665V23.8134H9.61984C12.3458 23.8134 14.0513 24.8982 14.0686 26.6458C14.0686 26.7053 14.1235 26.7545 14.1929 26.7545H14.4097C14.4791 26.7545 14.534 26.7053 14.534 26.6432V20.5979C14.534 20.5358 14.4791 20.4866 14.4097 20.4866H14.1929C14.1235 20.4866 14.0686 20.5358 14.0686 20.5979C14.0686 22.519 12.6551 23.4122 9.61984 23.4122H6.63665V17.7294H13.1638C15.381 17.7294 17.2917 19.1015 18.2745 21.3979C18.2919 21.4419 18.3381 21.4678 18.3902 21.4678H18.607C18.6446 21.4678 18.6821 21.4523 18.7053 21.4238C18.7284 21.3953 18.7371 21.3591 18.7255 21.3254L17.3987 17.1779C17.3842 17.1313 17.3351 17.0977 17.2802 17.0977H17.0634C17.0287 17.0977 16.9969 17.1106 16.9709 17.1339C16.9593 17.1443 16.9506 17.1598 16.9448 17.1727C16.6702 17.31 14.5658 17.31 13.1638 17.31H9.08506C8.62255 17.31 7.78714 17.3177 6.94595 17.3281C6.09898 17.3358 5.24623 17.3462 4.76927 17.3462C4.29519 17.3462 3.52916 17.3384 2.76024 17.3281C1.99132 17.3203 1.22529 17.31 0.748323 17.31C0.678946 17.31 0.624023 17.3591 0.624023 17.4213V17.6155C0.624023 17.6776 0.678946 17.7268 0.748323 17.7268H2.86141V29.8613H0.748323C0.678946 29.8613 0.624023 29.9105 0.624023 29.9726V30.1668C0.624023 30.2289 0.678946 30.2781 0.748323 30.2781C1.20505 30.2781 1.97686 30.2703 2.74868 30.26C3.52049 30.2522 4.2923 30.2419 4.74614 30.2419C5.2231 30.2419 6.0614 30.2496 6.89392 30.26C7.71777 30.2677 8.53872 30.2781 9.00123 30.2781H13.1783C15.011 30.2781 17.2859 30.2781 17.549 30.4697C17.549 30.493 17.5577 30.5189 17.575 30.537C17.5981 30.5629 17.6328 30.5784 17.6733 30.5784H17.8901C17.9421 30.5784 17.9884 30.5499 18.0057 30.5059L19.7864 26.0917C19.8008 26.0581 19.795 26.0192 19.7719 25.9908C19.7488 25.9623 19.717 25.9493 19.6765 25.9493Z" fill="#E9EAF0"/>
<path d="M51.8436 27.7924H51.6268C51.5575 27.7924 51.5025 27.8416 51.5025 27.9037C51.5025 29.2707 50.1526 29.8843 49.1929 29.8843C47.6695 29.8843 47.2503 28.463 46.8427 27.0908C46.7965 26.9303 46.7474 26.7724 46.7011 26.617C46.2155 25.0377 44.7383 24.362 43.3537 24.085C46.0073 23.663 47.2995 22.5886 47.2995 20.8151C47.2995 17.2993 42.1483 17.2993 38.3875 17.2993H27.6399C27.5705 17.2993 27.5156 17.3485 27.5156 17.4106V17.6048C27.5156 17.667 27.5705 17.7161 27.6399 17.7161H30.0508V29.8688H27.6399C27.5705 29.8688 27.5156 29.918 27.5156 29.9801V30.1743C27.5156 30.2364 27.5705 30.2856 27.6399 30.2856C28.3279 30.2856 29.0419 30.2778 29.7588 30.2675C30.4844 30.2597 31.2186 30.2493 31.9355 30.2493C32.6235 30.2493 33.3404 30.2571 34.0601 30.2675C34.7944 30.2752 35.5315 30.2856 36.2484 30.2856C36.3178 30.2856 36.3727 30.2364 36.3727 30.1743V29.9801C36.3727 29.918 36.3178 29.8688 36.2484 29.8688H33.8376V24.3465H39.0986C41.3302 24.3465 42.0442 25.7212 42.4836 27.2073C43.082 29.2112 43.6977 30.4409 47.2099 30.5859C47.2995 30.5885 47.418 30.5937 47.5596 30.5937C48.4326 30.5937 50.1757 30.4746 51.1961 29.5995C51.7107 29.1594 51.9708 28.5898 51.9708 27.9063C51.9679 27.8416 51.913 27.7924 51.8436 27.7924ZM33.8347 17.7136H38.3817C40.6596 17.7136 42.9895 18.0812 42.9895 20.8125C42.9895 23.5517 40.7752 23.9271 38.3817 23.9271H33.8347V17.7136V17.7136Z" fill="#E9EAF0"/>
<path d="M78.3895 25.9493H78.1727C78.1206 25.9493 78.0773 25.9778 78.057 26.0192C76.9759 28.4995 74.7877 29.8665 71.897 29.8665H65.3496V23.8134H68.3328C71.0587 23.8134 72.7642 24.8982 72.7815 26.6458C72.7815 26.7053 72.8365 26.7545 72.9058 26.7545H73.1226C73.192 26.7545 73.2469 26.7053 73.2469 26.6432V20.5979C73.2469 20.5358 73.192 20.4866 73.1226 20.4866H72.9058C72.8365 20.4866 72.7815 20.5358 72.7815 20.5979C72.7815 22.519 71.368 23.4122 68.3328 23.4122H65.3496V17.7294H71.8767C74.0939 17.7294 76.0046 19.1015 76.9875 21.3979C77.0048 21.4419 77.0511 21.4678 77.1031 21.4678H77.3199C77.3575 21.4678 77.3951 21.4523 77.4182 21.4238C77.4413 21.3953 77.45 21.3591 77.4384 21.3254L76.1116 17.1779C76.0971 17.1313 76.048 17.0977 75.9931 17.0977H75.7763C75.7416 17.0977 75.7098 17.1106 75.6838 17.1339C75.6722 17.1443 75.6635 17.1598 75.6578 17.1727C75.3831 17.31 73.2787 17.31 71.8767 17.31H67.798C67.3355 17.31 66.5001 17.3177 65.6589 17.3281C64.8119 17.3358 63.9592 17.3462 63.4822 17.3462C63.0081 17.3462 62.2421 17.3384 61.4761 17.3281C60.7071 17.3203 59.9411 17.31 59.4641 17.31C59.3948 17.31 59.3398 17.3591 59.3398 17.4213V17.6155C59.3398 17.6776 59.3948 17.7268 59.4641 17.7268H61.5772V29.8613H59.4641C59.3948 29.8613 59.3398 29.9105 59.3398 29.9726V30.1668C59.3398 30.2289 59.3948 30.2781 59.4641 30.2781C59.9209 30.2781 60.6927 30.2703 61.4645 30.26C62.2363 30.2522 63.0081 30.2419 63.462 30.2419C63.9389 30.2419 64.7772 30.2496 65.6097 30.26C66.4336 30.2677 67.2545 30.2781 67.7171 30.2781H71.8941C73.7268 30.2781 76.0018 30.2781 76.2648 30.4697C76.2648 30.493 76.2735 30.5189 76.2908 30.537C76.3139 30.5629 76.3486 30.5784 76.3891 30.5784H76.6059C76.6579 30.5784 76.7042 30.5499 76.7215 30.5059L78.5022 26.0917C78.5166 26.0581 78.5109 26.0192 78.4877 25.9908C78.4675 25.9675 78.4299 25.9493 78.3895 25.9493Z" fill="#E9EAF0"/>
<path d="M108.27 23.79C108.27 19.3421 102.983 17.3149 98.0718 17.3149H94.233C93.6693 17.3149 93.0305 17.3227 92.3888 17.3331C91.7499 17.3408 91.114 17.3512 90.5503 17.3512C89.9982 17.3512 89.2755 17.3434 88.5499 17.3331C87.8157 17.3253 87.0786 17.3149 86.512 17.3149C86.4426 17.3149 86.3877 17.3641 86.3877 17.4263V17.6204C86.3877 17.6826 86.4426 17.7318 86.512 17.7318H88.6251V29.8663H86.512C86.4426 29.8663 86.3877 29.9155 86.3877 29.9776V30.1718C86.3877 30.2339 86.4426 30.2831 86.512 30.2831C87.0352 30.2831 87.7521 30.2753 88.4748 30.265C89.2032 30.2572 89.9346 30.2468 90.4694 30.2468C90.9897 30.2468 91.6603 30.2546 92.331 30.265C93.0103 30.2727 93.6925 30.2831 94.2301 30.2831H98.069C100.593 30.2831 103.07 29.7446 104.868 28.8048C107.094 27.6449 108.27 25.9103 108.27 23.79ZM103.963 23.79C103.963 27.9867 101.012 29.8663 98.0892 29.8663H92.3945V17.7318H98.0892C101.015 17.7318 103.963 19.6062 103.963 23.79Z" fill="#E9EAF0"/>
<path d="M125.111 30.1718V29.9776C125.111 29.9155 125.057 29.8663 124.987 29.8663H122.576V17.7318H124.987C125.057 17.7318 125.111 17.6826 125.111 17.6204V17.4263C125.111 17.3641 125.057 17.3149 124.987 17.3149C124.285 17.3149 123.556 17.3227 122.828 17.3331C122.102 17.3408 121.374 17.3512 120.671 17.3512C119.966 17.3512 119.243 17.3434 118.521 17.3331C117.804 17.3253 117.087 17.3149 116.396 17.3149C116.327 17.3149 116.272 17.3641 116.272 17.4263V17.6204C116.272 17.6826 116.327 17.7318 116.396 17.7318H118.807V29.8663H116.396C116.327 29.8663 116.272 29.9155 116.272 29.9776V30.1718C116.272 30.2339 116.327 30.2831 116.396 30.2831C117.087 30.2831 117.804 30.2753 118.521 30.265C119.243 30.2572 119.966 30.2468 120.671 30.2468C121.374 30.2468 122.099 30.2546 122.828 30.265C123.556 30.2727 124.285 30.2831 124.987 30.2831C125.057 30.2831 125.111 30.2339 125.111 30.1718Z" fill="#E9EAF0"/>
<path d="M150.321 17.1648C150.307 17.1182 150.258 17.0845 150.203 17.0845H149.986C149.948 17.0845 149.914 17.1001 149.89 17.1234C149.882 17.1337 149.873 17.1467 149.867 17.1596C149.526 17.3149 146.667 17.3149 145.433 17.3149H137.099C136.157 17.3149 134.735 17.3149 134.61 17.1855C134.613 17.1544 134.602 17.1234 134.578 17.1027C134.555 17.0794 134.523 17.0664 134.489 17.0664H134.272C134.217 17.0664 134.168 17.1001 134.153 17.1467L132.847 21.3304C132.835 21.3641 132.844 21.4003 132.867 21.4262C132.89 21.4547 132.928 21.4702 132.965 21.4702H133.182C133.234 21.4702 133.278 21.4418 133.298 21.4003C134.333 19.0211 135.538 17.7292 138.943 17.7292H140.305V29.8637H137.894C137.825 29.8637 137.77 29.9129 137.77 29.975V30.1692C137.77 30.2313 137.825 30.2805 137.894 30.2805C138.582 30.2805 139.296 30.2727 140.013 30.2624C140.738 30.2546 141.473 30.2443 142.19 30.2443C142.88 30.2443 143.597 30.252 144.32 30.2624C145.048 30.2702 145.78 30.2805 146.485 30.2805C146.555 30.2805 146.609 30.2313 146.609 30.1692V29.975C146.609 29.9129 146.555 29.8637 146.485 29.8637H144.095V17.7292H145.554C148.662 17.7292 150.289 18.7907 151.177 21.3926C151.191 21.4392 151.24 21.4702 151.295 21.4702H151.512C151.55 21.4702 151.587 21.4547 151.61 21.4262C151.633 21.3978 151.642 21.3615 151.631 21.3304L150.321 17.1648Z" fill="#E9EAF0"/>
<path d="M182.248 29.8663H179.803L171.307 17.4211C171.298 17.4107 171.29 17.4004 171.281 17.3926C171.267 17.346 171.217 17.3149 171.162 17.3149C170.894 17.3149 170.616 17.3227 170.336 17.3331C170.061 17.3408 169.784 17.3512 169.518 17.3512C169.26 17.3512 168.098 17.3434 166.936 17.3331C165.771 17.3253 164.609 17.3149 164.352 17.3149C164.283 17.3149 164.228 17.3641 164.228 17.4263V17.6204C164.228 17.6826 164.283 17.7318 164.352 17.7318H167.139L158.799 29.8663H156.333C156.264 29.8663 156.209 29.9155 156.209 29.9776V30.1718C156.209 30.2002 156.223 30.2287 156.247 30.2494C156.27 30.2701 156.301 30.2831 156.333 30.2831C157.027 30.2831 157.331 30.2753 157.623 30.265C157.917 30.2572 158.224 30.2468 158.926 30.2468C159.626 30.2468 159.97 30.2546 160.299 30.265C160.632 30.2727 160.973 30.2831 161.678 30.2831C161.71 30.2831 161.742 30.2701 161.765 30.2494C161.788 30.2287 161.802 30.2002 161.802 30.1718V29.9776C161.802 29.9155 161.748 29.8663 161.678 29.8663H159.345L162.164 25.7628H172.773L175.571 29.8663H173.218C173.148 29.8663 173.093 29.9155 173.093 29.9776V30.1718C173.093 30.2339 173.148 30.2831 173.218 30.2831C174.166 30.2831 174.952 30.2727 175.712 30.265C176.392 30.2572 177.036 30.2494 177.73 30.2494C178.291 30.2494 179.173 30.2598 180.043 30.2676C180.89 30.2753 181.725 30.2857 182.242 30.2857C182.312 30.2857 182.367 30.2365 182.367 30.1744V29.9802C182.373 29.9155 182.318 29.8663 182.248 29.8663ZM172.489 25.3459H162.462L167.506 18.0269L172.489 25.3459Z" fill="#E9EAF0"/>
<path d="M163.592 13.5221C163.277 13.4263 162.89 13.1208 162.771 12.8023C162.601 12.3311 162.751 11.7875 163.112 11.4328C163.283 11.2593 163.494 11.135 163.725 11.0677C164.231 10.9202 164.824 11.0185 165.165 11.3163L169.833 15.3991L169.643 15.4534L163.592 13.5221Z" fill="#E9EAF0"/>
<path d="M206.638 1.08H209.704V43.122H206.638V1.08Z" fill="#E9EAF0"/>
<path d="M254.877 33.8801H258.076V19.4724H254.877V33.8801ZM278.739 33.8801H292.36V31.468H281.955V27.9113H288.831V25.4973H281.955V21.9053H292.042V19.4724H278.739V33.8801ZM306.282 23.7565C306.282 24.4562 306.048 24.92 305.576 25.1471C305.107 25.3749 304.516 25.491 303.815 25.491H297.993V21.9255H303.815C304.516 21.9255 305.107 22.0643 305.576 22.3356C306.048 22.6082 306.282 23.0839 306.282 23.7565V23.7565ZM309.489 23.7565C309.489 22.1892 309.001 21.0882 308.021 20.4572C307.038 19.8231 305.569 19.5102 303.61 19.5102H294.785V33.8599H298.001L297.993 27.9107H303.61C305.569 27.9107 307.038 27.6116 308.021 27.0103C309.001 26.4128 309.489 25.325 309.489 23.7565V23.7565ZM311.422 33.8965H325.501V31.4888H314.583V19.4648L311.422 19.473V33.8965ZM327.906 33.8801H341.525V31.468H331.121V27.8968H337.996V25.4828H331.121V21.9059H341.207V19.473H327.906V33.8801Z" fill="white"/>
<path d="M253.085 21.0409C252.646 20.7658 251.943 20.3935 250.907 20.039C250.329 19.8389 249.681 19.6459 248.892 19.5159C248.125 19.3885 247.289 19.285 246.368 19.285C245.182 19.285 244.028 19.4396 242.9 19.743C241.776 20.0509 240.778 20.5147 239.903 21.1337C239.034 21.7545 238.329 22.523 237.799 23.4373C237.265 24.3534 237 25.4203 237 26.645C237 27.8628 237.265 28.9347 237.799 29.8603C238.329 30.7859 239.022 31.5607 239.868 32.1829C240.715 32.8018 241.682 33.2568 242.773 33.5394C243.864 33.8221 244.954 34 246.067 34C247.155 34 248.069 33.9243 248.955 33.7508C249.836 33.5741 250.697 33.3198 251.364 33.0656C251.364 33.0656 252.196 32.7242 253.168 32.2043L251.258 30.2869C250.899 30.4812 250.482 30.6831 250.002 30.8743C249.447 31.0939 248.827 31.2629 248.149 31.4144C247.47 31.5664 246.525 31.6434 245.873 31.6434C245.169 31.6434 244.479 31.5279 243.804 31.3008C243.125 31.0718 242.519 30.7342 241.985 30.2869C241.453 29.8427 241.022 29.3057 240.697 28.6868C240.369 28.0659 240.205 27.3618 240.205 26.5781C240.205 25.7913 240.349 25.0942 240.642 24.484C240.93 23.8739 241.343 23.3628 241.874 22.9502C242.411 22.5344 243.033 22.2258 243.749 22.0164C244.462 21.8119 245.255 21.7084 246.124 21.7084C246.851 21.7084 247.796 21.7659 248.402 21.8876C248.733 21.952 249.037 22.0258 249.319 22.1059C249.319 22.1059 250.137 22.3243 251.173 22.9615L253.085 21.0409Z" fill="white"/>
<path d="M362.238 20.5353C362.188 20.5498 362.12 20.5605 362.026 20.5605H361.831V20.115H362.014C362.137 20.115 362.225 20.127 362.28 20.1586C362.335 20.1888 362.362 20.25 362.362 20.3409C362.363 20.4343 362.32 20.4993 362.238 20.5353V20.5353ZM362.487 20.746C362.441 20.6785 362.369 20.6394 362.274 20.6248C362.347 20.6122 362.408 20.5946 362.451 20.5649C362.533 20.5138 362.574 20.433 362.574 20.3213C362.574 20.1668 362.508 20.0627 362.38 20.009C362.309 19.9806 362.198 19.9674 362.048 19.9674H361.612V21.1996H361.831V20.7138H362.001C362.12 20.7138 362.198 20.7271 362.245 20.7529C362.323 20.799 362.359 20.8936 362.359 21.0356V21.134L362.366 21.1731C362.366 21.1788 362.366 21.1851 362.369 21.1883V21.2003H362.574L362.567 21.1851C362.562 21.1731 362.559 21.1523 362.557 21.1195V20.9372C362.557 20.8741 362.53 20.8116 362.487 20.746V20.746ZM363.03 20.5857C363.03 20.8551 362.937 21.0848 362.754 21.2741C362.563 21.464 362.335 21.5612 362.065 21.5612C361.798 21.5612 361.567 21.464 361.382 21.2741C361.194 21.0854 361.101 20.8551 361.101 20.5857C361.101 20.3195 361.197 20.0923 361.382 19.9037C361.572 19.7125 361.802 19.6185 362.065 19.6185C362.335 19.6185 362.563 19.7125 362.754 19.9037C362.937 20.0923 363.03 20.3195 363.03 20.5857ZM363.192 20.5845C363.192 20.2747 363.081 20.0103 362.862 19.7933C362.645 19.5718 362.378 19.4639 362.066 19.4639C361.758 19.4639 361.495 19.5718 361.277 19.7933C361.058 20.0103 360.947 20.2747 360.947 20.5845C360.947 20.8955 361.055 21.1631 361.272 21.3833C361.491 21.6028 361.755 21.7139 362.066 21.7139C362.378 21.7139 362.645 21.6028 362.862 21.3833C363.081 21.1618 363.192 20.8955 363.192 20.5845" fill="white"/>
<path d="M342.998 19.464L357.135 33.8257H361.051L346.901 19.464H342.998Z" fill="white"/>
<path d="M361.049 19.464L346.913 33.8257H342.996L357.146 19.464H361.049Z" fill="white"/>
<path d="M276.294 33.8452V19.4374H273.522V29.8551L263.298 19.4476V19.4374H260.527V33.8452H263.298V23.4573L273.522 33.8421V33.8452H276.294Z" fill="white"/>
<path d="M328.242 7.54657C328.242 3.55518 316.74 0.285591 302.161 -0.000229202L302.037 1.10393C314.056 1.3866 323.508 4.282 323.508 7.81406C323.508 11.4332 313.596 14.3854 301.159 14.5438L301.246 15.106C316.259 14.9432 328.242 11.6219 328.242 7.54657" fill="#FFCB05"/>
<path d="M317.78 8.4471C317.78 11.1614 310.34 13.3779 300.985 13.5123L301.072 14.0688C311.972 13.9237 320.655 11.3381 320.655 8.17198C320.655 5.08663 312.415 2.55461 301.911 2.29025L301.788 3.40138C310.76 3.64493 317.78 5.81162 317.78 8.4471" fill="#FFCB05"/>
<path d="M314.949 8.79092C314.949 6.60468 309.127 4.80582 301.663 4.58372L301.539 5.69359C307.488 5.89423 312.103 7.32648 312.103 9.06727C312.103 10.88 307.106 12.3602 300.809 12.4618L300.896 13.0151C308.725 12.9022 314.949 11.0535 314.949 8.79092" fill="#FFCB05"/>
<path d="M271.947 7.54657C271.947 3.55518 283.449 0.285591 298.032 -0.000229202L298.155 1.10393C286.134 1.3866 276.682 4.282 276.682 7.81406C276.682 11.4332 286.595 14.3854 299.031 14.5438L298.944 15.106C283.932 14.9432 271.947 11.6219 271.947 7.54657Z" fill="#FFCB05"/>
<path d="M282.41 8.4471C282.41 11.1614 289.852 13.3779 299.205 13.5123L299.118 14.0688C288.218 13.9237 279.536 11.3381 279.536 8.17198C279.536 5.08663 287.776 2.55461 298.28 2.29025L298.405 3.40138C289.43 3.64493 282.41 5.81162 282.41 8.4471" fill="#FFCB05"/>
<path d="M285.242 8.79092C285.242 6.60468 291.062 4.80582 298.527 4.58372L298.65 5.69359C292.702 5.89423 288.086 7.32648 288.086 9.06727C288.086 10.88 293.084 12.3602 299.38 12.4618L299.293 13.0151C291.464 12.9022 285.242 11.0535 285.242 8.79092" fill="#FFCB05"/>
</svg>