<svg width="79" height="79" viewBox="0 0 79 79" fill="none" xmlns="http://www.w3.org/2000/svg">
<path d="M62.8884 28.78C63.0994 28.8842 63.3294 28.9362 63.5598 28.9362C63.8011 28.9362 64.0424 28.8791 64.2614 28.7651C65.491 28.1241 69.5061 25.7823 69.5522 22.5603C69.618 20.6291 67.8656 18.6427 65.6925 18.6782C64.9299 18.6782 64.1953 18.8967 63.5672 19.3031C62.9438 18.8964 62.2179 18.6782 61.4644 18.6782C59.4573 18.6569 57.6228 20.4196 57.5772 22.5202C57.5097 25.864 61.6255 28.157 62.8884 28.78ZM61.4533 20.9927H61.4641C61.8582 20.9927 62.2353 21.1437 62.5271 21.4188C62.5272 21.419 62.5274 21.4191 62.5275 21.4193C63.1065 21.9644 64.0176 21.9647 64.6013 21.4202C64.8972 21.1445 65.2845 20.9927 65.6922 20.9927C66.312 21.003 67.1976 21.4966 67.2379 22.527C67.216 24.0521 65.0552 25.6672 63.5504 26.5176C62.0293 25.6989 59.8596 24.1218 59.8909 22.5669C59.9079 21.7341 60.638 20.9984 61.4533 20.9927Z" fill="white"/>
<path d="M14.7269 28.7802C14.9379 28.8842 15.1678 28.9362 15.398 28.9362C15.6393 28.9362 15.8806 28.8791 16.0996 28.7651C17.329 28.1241 21.3441 25.7823 21.3904 22.5602C21.456 20.6293 19.7035 18.6427 17.5305 18.6782C16.768 18.6782 16.0335 18.8967 15.4052 19.3031C14.7745 18.8914 14.0363 18.6725 13.2752 18.6782C11.1892 18.693 9.45755 20.4167 9.41512 22.5202C9.34785 25.864 13.4636 28.157 14.7269 28.7802ZM13.2917 20.9927H13.3025C13.6966 20.9927 14.0737 21.1437 14.3653 21.4188C14.3654 21.419 14.3656 21.4191 14.3657 21.4193C14.9445 21.9643 15.8555 21.9649 16.4395 21.4202C16.7353 21.1445 17.1227 20.9927 17.5304 20.9927C18.1502 21.003 19.0358 21.4966 19.0761 22.527C19.0542 24.0521 16.8934 25.6672 15.3884 26.5176C13.8675 25.6989 11.6978 24.1218 11.7293 22.5669C11.7461 21.7339 12.4762 20.9984 13.2917 20.9927Z" fill="white"/>
<path d="M7.40983 32.3513H11.133C11.2657 32.3513 11.3907 32.403 11.4847 32.4966L14.0049 35.012C14.3905 35.3966 14.8986 35.5892 15.4069 35.5892C15.9105 35.5892 16.4141 35.4002 16.7986 35.0217L19.3677 32.4942C19.4613 32.4019 19.5854 32.3511 19.7169 32.3511H23.3954C25.6763 32.3511 27.5318 30.4957 27.5318 28.2147V23.8759C28.0932 24.079 28.698 24.1902 29.3285 24.1902H34.3178C34.6985 24.1902 35.0611 24.3542 35.3126 24.6397L37.8352 27.5054C38.2723 28.0021 38.9026 28.2883 39.5642 28.291H39.5735C40.2317 28.291 40.8603 28.0101 41.2994 27.5193L43.8828 24.6318C44.1339 24.3511 44.4938 24.1902 44.8705 24.1902H49.8044C50.3735 24.1902 50.9212 24.0989 51.4354 23.9321V28.2149C51.4354 30.4957 53.2908 32.3513 55.5717 32.3513H59.2949C59.4276 32.3513 59.5526 32.403 59.6466 32.4966L62.1669 35.012C62.5524 35.3966 63.0607 35.5892 63.569 35.5892C64.0724 35.5892 64.576 35.4002 64.9607 35.0217L67.5299 32.494C67.6236 32.4019 67.7476 32.3511 67.8791 32.3511H71.5577C73.8383 32.3511 75.6939 30.4957 75.6939 28.2147V17.4764C75.6939 15.1956 73.8385 13.34 71.5577 13.34H55.0991V5.2947C55.0991 2.37525 52.7239 0 49.8043 0H40.3767C39.7375 0 39.2195 0.517975 39.2195 1.15723C39.2195 1.79648 39.7375 2.31445 40.3767 2.31445H49.8043C51.4475 2.31445 52.7845 3.65144 52.7845 5.2947V18.8953C52.7845 20.5388 51.4475 21.8757 49.8043 21.8757H44.8703C43.8361 21.8757 42.8473 22.3178 42.1576 23.0885L39.5724 25.9762L37.0499 23.1104C36.3592 22.3258 35.3633 21.8757 34.3178 21.8757H29.3285C27.6851 21.8757 26.3481 20.5388 26.3481 18.8953V5.2947C26.3481 3.65144 27.6851 2.31445 29.3285 2.31445H34.9764C35.6155 2.31445 36.1336 1.79648 36.1336 1.15723C36.1336 0.517975 35.6155 0 34.9764 0H29.3285C26.4089 0 24.0336 2.37525 24.0336 5.2947V13.3404H7.40983C5.12901 13.3404 3.27344 15.1958 3.27344 17.4767V28.215C3.27344 30.4959 5.12901 32.3513 7.40983 32.3513ZM71.5575 15.6548C72.562 15.6548 73.3793 16.4721 73.3793 17.4767V28.215C73.3793 29.2197 72.562 30.037 71.5575 30.037H67.8789C67.1363 30.037 66.4358 30.3237 65.9067 30.8444L63.5702 33.1428L61.2813 30.8584C60.7506 30.3286 60.045 30.0368 59.2948 30.0368H55.5716C54.567 30.0368 53.7497 29.2195 53.7497 28.2149V22.4215C54.5879 21.4845 55.099 20.2485 55.099 18.8952V15.6547H71.5575V15.6548ZM5.58789 17.4767C5.58789 16.4721 6.4052 15.6548 7.40983 15.6548H24.0336V18.8953C24.0336 20.1572 24.478 21.3167 25.2174 22.2274V28.2149C25.2174 29.2195 24.4001 30.0368 23.3954 30.0368H19.7169C18.9744 30.0368 18.274 30.3235 17.7446 30.8443L15.4083 33.1427L13.1194 30.8583C12.5885 30.3284 11.883 30.0367 11.1329 30.0367H7.40967C6.40505 30.0367 5.58774 29.2194 5.58774 28.2147V17.4767H5.58789Z" fill="white"/>
<path d="M30.9984 10.9137C30.9023 15.6793 36.9475 19.0355 38.802 19.9504C39.0398 20.0678 39.2993 20.1264 39.5588 20.1264C39.8309 20.1264 40.1026 20.0621 40.3495 19.9335C42.1591 18.9905 48.0682 15.5552 48.1343 10.9536C48.2323 8.24956 45.7657 5.56618 42.8306 5.62497C41.6411 5.62497 40.5016 6.01087 39.5686 6.72141C38.6324 6.00254 37.4945 5.6205 36.3067 5.62497C33.4382 5.64518 31.0569 8.01765 30.9984 10.9137ZM36.3234 7.93943C36.3305 7.93927 36.3376 7.93927 36.3447 7.93927C37.1074 7.93927 37.8363 8.23089 38.399 8.76136V8.76152C39.0504 9.37547 40.0768 9.37531 40.7357 8.76121C41.3044 8.23089 42.048 7.93943 42.8306 7.93943C44.2515 7.91474 45.8594 9.20111 45.8202 10.9204C45.7833 13.4822 42.4812 16.1548 39.5517 17.7368C36.5789 16.2131 33.2595 13.5841 33.3123 10.9604C33.3453 9.33412 34.7239 7.95069 36.3234 7.93943Z" fill="white"/>
<path d="M76.2044 70.0952V53.2391C76.2044 46.3014 70.5602 40.6572 63.6226 40.6572C61.6286 40.6572 59.6431 41.1359 57.8807 42.0413C57.3121 42.3334 57.0881 43.0309 57.3802 43.5994C57.6722 44.1679 58.37 44.392 58.9383 44.0999C60.3954 43.3513 61.9714 42.9717 63.6226 42.9717C69.284 42.9717 73.8899 47.5776 73.8899 53.2391V68.0539C73.8583 68.0401 73.8282 68.0242 73.7963 68.0111H73.7964L67.9683 65.6095V63.3472C70.1954 61.1235 71.9078 57.5574 71.9078 54.2769C71.9078 50.0519 70.027 46.7322 66.8762 45.3963C66.59 45.275 66.2669 45.2744 65.9793 45.3938C65.7799 45.4889 65.4156 45.7084 65.2937 46.2147C64.5962 49.3985 62.0862 51.8962 58.8992 52.5782L56.2506 53.1451C55.8057 53.231 55.341 53.7649 55.3384 54.5083C55.4184 57.757 57.1023 61.2006 59.2771 63.3615V65.6095L54.6732 67.5066C54.3019 67.0483 53.8587 66.6467 53.3555 66.3165V53.2389C53.3555 51.1176 53.9966 49.082 55.2095 47.352C55.5764 46.8286 55.4498 46.1071 54.9264 45.7402C54.4029 45.3733 53.6815 45.5001 53.3146 46.0234C51.8272 48.1446 51.0412 50.6398 51.0412 53.2391V65.2454L44.7082 62.6359V58.2398C47.6075 55.8914 49.3253 51.6665 49.6448 47.51C51.162 46.4213 52.048 44.2193 52.5377 42.4566C52.873 41.2497 52.6678 39.9613 51.9744 38.9219C51.5362 38.2647 50.9309 37.7512 50.2314 37.4264C50.3009 37.0407 50.3186 36.6446 50.2833 36.2466C50.0941 34.1248 48.4168 32.4503 46.2947 32.2652C45.5018 32.1962 44.7172 32.3429 44.0188 32.6739C43.1656 31.033 41.4512 29.9336 39.4999 29.9336C38.636 29.9336 37.7929 30.1533 37.0465 30.5642C36.2813 29.9587 35.3344 29.625 34.331 29.625C32.379 29.625 30.7203 30.8774 30.1477 32.6605C27.4551 33.1692 25.4589 35.5094 25.4589 38.3428C25.4589 39.6338 25.8859 40.8735 26.6703 41.8848C26.6496 42.5346 26.6518 43.7327 26.8673 44.8822C27.2725 47.043 28.7063 48.1753 29.5692 48.6746C29.6723 49.4298 29.8186 50.1817 30.0111 50.916C30.1468 51.3522 30.7103 51.9357 31.4239 51.7421C32.0422 51.5801 32.412 50.9476 32.25 50.3293C32.0442 49.5435 31.8948 48.7347 31.8064 47.9254C31.7553 47.4779 31.9224 47.2812 32.9371 46.7861C33.6235 46.4576 34.4999 46.0383 35.0449 45.1757C37.3506 45.4326 39.9266 44.1491 41.1785 42.1812C41.9674 42.6947 43.1609 43.1551 44.3986 43.0309C44.9889 44.2922 45.8219 44.8664 46.463 45.3084C47.1524 45.7834 47.3648 45.9312 47.3688 46.8046C47.1291 52.2128 44.137 57.7976 39.5334 57.7976C36.9894 57.7976 35.2813 56.181 34.2964 54.8251C33.9207 54.3079 33.1971 54.1929 32.68 54.5688C32.163 54.9445 32.0482 55.668 32.4237 56.1852C33.0133 56.9968 33.6623 57.6868 34.3617 58.252V62.636C32.4554 63.4214 28.5638 65.025 26.6928 65.7959C25.7643 66.1784 24.9777 66.7812 24.3787 67.528L19.7229 65.6097V62.0514C21.3539 60.6041 22.7456 58.4867 23.4798 56.1656C23.8109 56.1179 24.1077 55.9303 24.29 55.6455C25.493 53.7661 27.8039 48.0672 24.0991 44.3156C22.643 42.8413 20.5946 42.5313 18.9044 42.8547C18.8334 42.7001 18.7529 42.5512 18.662 42.4091C17.0991 39.9674 13.0598 39.625 9.4659 41.6299C8.90781 41.9413 8.70768 42.6461 9.01905 43.2042C9.33042 43.7624 10.0353 43.9627 10.5935 43.6511C13.2891 42.1477 15.9339 42.44 16.7128 43.6568C17.0352 44.1605 17.0559 44.9348 16.7695 45.7816C16.3443 47.0388 15.1257 48.6604 12.9806 49.4412C10.5086 50.3409 8.79995 51.7539 7.75058 52.8646C7.31531 51.3384 7.06473 49.1576 7.66232 47.1758C7.84686 46.5639 7.50031 45.9183 6.88837 45.7337C6.27612 45.5494 5.63085 45.8956 5.44631 46.5077C4.37858 50.0491 5.42471 54.1107 6.46822 55.7407C6.65631 56.0345 6.96505 56.2247 7.30605 56.2653C8.04884 58.5398 9.42594 60.6143 11.0315 62.0418V65.6095C10.9255 65.6561 5.25097 67.9858 5.13849 68.0408C3.28893 68.8332 2.09668 70.634 2.09668 72.6513V76.2981C2.09668 77.7878 3.30868 79 4.79842 79H74.2011C75.6909 79 76.9029 77.7882 76.9029 76.2983V72.6511C76.903 71.7285 76.6518 70.8519 76.2044 70.0952ZM46.2564 41.3951C46.1714 41.0916 45.9664 40.8359 45.6886 40.687C45.4109 40.5381 45.0846 40.5091 44.7849 40.6063C44.5229 40.6913 44.2503 40.7344 43.9745 40.7344C43.1034 40.7344 42.2909 40.303 41.801 39.5802C41.5535 39.2152 41.1204 39.0225 40.6825 39.0834C40.2453 39.1447 39.8812 39.4492 39.7436 39.8688C39.1497 41.6785 37.4706 42.8945 35.5654 42.8945C35.3507 42.8945 34.8312 42.8146 34.5481 42.7608C33.9326 42.6435 33.3359 43.0368 33.2009 43.6484C33.1011 44.1014 32.7575 44.3062 31.9382 44.6981C31.327 44.9905 30.5214 45.3758 29.9997 46.1141C29.6362 45.7432 29.2829 45.2061 29.1421 44.4559C28.8894 43.1081 29.001 41.5909 29.002 41.5767C29.0272 41.2548 28.9167 40.9371 28.6975 40.7003C28.1016 40.0567 27.7732 39.2193 27.7732 38.3429C27.7732 36.4537 29.2522 34.93 31.1401 34.8743C31.7241 34.8571 32.2037 34.4071 32.2582 33.8253C32.3588 32.7501 33.2498 31.9395 34.331 31.9395C34.9847 31.9395 35.5887 32.2406 35.988 32.7657C36.1821 33.0211 36.4736 33.1845 36.7928 33.2167C37.1119 33.249 37.4302 33.1473 37.6717 32.9359C38.1781 32.4923 38.8274 32.248 39.4999 32.248C40.9139 32.248 42.1 33.3058 42.2586 34.7083C42.3108 35.1692 42.6331 35.5545 43.0776 35.6872C43.5231 35.8205 44.0031 35.6741 44.2992 35.3172C44.7429 34.7821 45.3959 34.5097 46.0935 34.5708C47.0798 34.6569 47.8898 35.4656 47.9776 36.4522C48.015 36.8706 47.9293 37.2834 47.7301 37.646C47.5434 37.9856 47.5391 38.3962 47.7187 38.7396C47.8983 39.0831 48.2379 39.3139 48.6234 39.3542C49.1324 39.3974 49.6448 39.6501 50.0486 40.2059C50.368 40.6848 50.4624 41.2794 50.3074 41.837C49.9826 43.0065 49.5751 43.9826 49.1332 44.6814C48.7442 44.0693 48.216 43.7054 47.7764 43.4025C47.1133 42.9453 46.5893 42.5841 46.2564 41.3951ZM59.3833 54.8417C62.9444 54.0797 65.844 51.5436 67.112 48.1985C68.6857 49.4268 69.5932 51.603 69.5932 54.277C69.5932 58.4298 65.9793 63.2341 63.6215 63.2341C61.4365 63.2341 58.1734 59.1443 57.7062 55.2008L59.3833 54.8417ZM37.4794 76.6855C37.0546 72.7004 35.5522 68.8511 33.171 65.6299L35.2464 64.7748C36.422 65.8166 37.9428 66.4029 39.5336 66.403H39.5347C41.1288 66.403 42.6531 65.8144 43.8241 64.7751L45.8667 65.6168C43.4715 68.8372 41.9551 72.6942 41.5223 76.6855H37.4794ZM48.0841 66.5303L51.495 67.9358C52.8025 68.4745 53.6471 69.7362 53.6471 71.1501V76.6855H43.8553C44.3023 72.9958 45.7775 69.4461 48.0841 66.5303ZM39.5334 60.1119C40.5578 60.1119 41.5121 59.9261 42.3935 59.589V62.9487C41.6252 63.6774 40.6041 64.0884 39.5348 64.0884C39.5347 64.0884 39.5343 64.0884 39.5342 64.0884C38.4632 64.0883 37.4405 63.6757 36.6763 62.9496V59.5918C37.5786 59.9343 38.5345 60.1119 39.5334 60.1119ZM23.1081 76.6855H21.0899L23.1081 74.3425V76.6855ZM23.1218 70.7803L18.0351 76.6855H12.7689L7.46374 69.5831L11.9252 67.7448C12.8856 68.5501 14.1045 69 15.3764 69.0003H15.3773C16.6489 69.0003 17.8675 68.5507 18.8291 67.7447L23.3221 69.5959C23.2161 69.9784 23.1474 70.3743 23.1218 70.7803ZM22.4524 45.942C24.4668 47.9819 23.8325 51.0755 23.0382 53.0141C22.279 52.2613 21.1889 51.2962 19.8687 50.4512C19.0396 49.9204 18.3685 49.2158 17.9636 48.4642C18.3897 47.8627 18.7294 47.211 18.9619 46.5234C19.1184 46.0607 19.2162 45.5997 19.2576 45.151C20.2201 44.9539 21.5531 45.0315 22.4524 45.942ZM9.25451 54.6436C10.0757 53.7285 11.5444 52.4273 13.7722 51.6165C14.7077 51.2759 15.5663 50.7919 16.3148 50.1983C16.8944 51.0423 17.6804 51.7982 18.6209 52.4005C19.8155 53.1651 20.808 54.0578 21.4773 54.7285C20.5847 58.5282 17.4731 61.6911 15.3761 61.6911C13.278 61.691 10.1217 58.4742 9.25451 54.6436ZM15.3762 64.0054C16.0445 64.0054 16.73 63.8477 17.4085 63.5592V65.9145C16.8521 66.4086 16.1309 66.6857 15.3773 66.6857C15.3772 66.6857 15.377 66.6857 15.3767 66.6857C14.6247 66.6856 13.9049 66.4094 13.3462 65.9138V63.5557C14.0249 63.846 14.71 64.0054 15.3762 64.0054ZM4.41129 76.2981V72.6513C4.41129 71.8507 4.76062 71.114 5.34216 70.6103L9.88003 76.6855H4.79857C4.58503 76.6855 4.41129 76.5118 4.41129 76.2981ZM25.4225 71.1501C25.4225 69.7362 26.2673 68.4743 27.5746 67.9358L30.9568 66.5422C33.2489 69.46 34.7089 73.0028 35.1472 76.6855H25.4227V71.1501H25.4225ZM55.9616 76.6855V71.1501C55.9616 70.6056 55.8832 70.0758 55.7406 69.5701L59.286 68.1091C59.3309 71.0247 59.601 74.0886 61.2229 76.6855H55.9616ZM61.5914 66.3821V65.0465C62.2671 65.3677 62.9521 65.5486 63.6215 65.5486C64.2913 65.5486 64.9771 65.3686 65.6537 65.0443C65.6539 65.0472 65.6534 66.2673 65.6539 66.3875C65.6539 69.8604 65.6528 73.4441 63.6227 76.0849C61.5923 73.4484 61.5914 69.8608 61.5914 66.3845C61.5915 66.3836 61.5914 66.3828 61.5914 66.3821ZM74.5886 76.2983C74.5886 76.5118 74.4148 76.6855 74.2013 76.6855H66.0214C67.6441 74.0861 67.9142 71.0235 67.9592 68.1093L72.9145 70.1511H72.9146C73.9314 70.57 74.5886 71.5513 74.5886 72.6511V76.2983Z" fill="white"/>
</svg>
