<svg width="31" height="19" viewBox="0 0 31 19" fill="none" xmlns="http://www.w3.org/2000/svg">
<path fill-rule="evenodd" clip-rule="evenodd" d="M22.0465 18.4099C21.7562 18.1143 21.7656 17.6471 22.0465 17.3325L28.2628 10.2387H1.61859C1.20666 10.2387 0.869629 9.89543 0.869629 9.4759C0.869629 9.05638 1.20666 8.71313 1.61859 8.71313H28.2628L22.0558 1.61932C21.7843 1.29515 21.7562 0.847016 22.0465 0.551441C22.3367 0.255866 22.8422 0.236796 23.1137 0.541906C23.1137 0.541906 30.5284 8.83708 30.6033 8.93242C30.6782 9.02777 30.828 9.1994 30.828 9.4759C30.828 9.75241 30.6782 9.9431 30.6033 10.0194C30.5284 10.0957 23.1137 18.4099 23.1137 18.4099C22.9733 18.5529 22.7767 18.6292 22.5801 18.6292C22.3835 18.6292 22.1963 18.5529 22.0465 18.4099Z" fill="black" fill-opacity="0.87"/>
</svg>
