<svg width="176" height="13" viewBox="0 0 176 13" fill="none" xmlns="http://www.w3.org/2000/svg">
<path d="M4.6451 2.71998C3.64509 2.71998 3.02875 3.18741 3.02875 3.93546C3.02875 5.93621 8.74252 4.80448 8.74252 8.93482C8.74252 10.655 7.35953 12.0022 4.56135 12.0022C2.27856 12.0022 0.746685 11.0036 0.129639 10.471L1.51334 8.7709C2.02945 9.24048 3.19483 10.0852 4.63007 10.0852C5.81262 10.0852 6.39459 9.66927 6.39459 8.99066C6.39459 6.78948 0.662933 7.95485 0.662933 4.07147C0.662933 2.22247 2.22702 0.771484 4.59356 0.771484C7.52775 0.771484 8.4297 2.47015 8.67738 3.65485L6.5621 4.17097C6.51199 3.58685 5.92787 2.71998 4.6451 2.71998Z" fill="white"/>
<path d="M22.0898 4.78676C22.0898 7.38451 20.2759 8.68589 17.7934 8.68589H15.8943V11.8835H13.5242V0.884766H17.472C20.3568 0.884766 22.0898 2.18758 22.0898 4.78676ZM19.6875 4.78676C19.6875 3.53549 18.8736 2.75308 17.2393 2.75308H15.8929V6.82115H17.3396C18.8414 6.82044 19.6875 6.10103 19.6875 4.78676Z" fill="white"/>
<path d="M29.0042 2.83684V5.36873H33.2713V7.21844H29.0042V9.93573H33.9191V11.8842H26.6377V0.884766H33.9184V2.83612H29.0042V2.83684Z" fill="white"/>
<path d="M41.1991 2.83684V5.36873H45.4654V7.21844H41.1991V9.93573H46.1168V11.8842H38.8333V0.884766H46.1168V2.83612H41.1991V2.83684Z" fill="white"/>
<path d="M60.0273 11.8835C60.0273 11.8835 59.5949 12.0002 58.8089 12.0002C55.4624 12.0002 56.378 8.11824 53.8948 8.11824H53.3951V11.8835H51.0286V0.884766H54.7602C57.6278 0.884766 59.1618 2.02222 59.1618 4.60136C59.1618 6.13539 58.3422 7.16905 56.9456 7.70377C58.1275 8.25353 58.159 10.1032 59.5419 10.1032C59.7273 10.1032 59.8805 10.0682 59.8805 10.0682L60.0273 11.8835ZM54.4438 6.45393C55.8626 6.45393 56.8304 5.80253 56.8304 4.61926C56.8304 3.38731 56.0286 2.7538 54.6292 2.7538H53.3951V6.45465H54.4438V6.45393Z" fill="white"/>
<path d="M68.1378 2.71998C67.1385 2.71998 66.5222 3.18741 66.5222 3.93546C66.5222 5.93621 72.2374 4.80448 72.2374 8.93482C72.2374 10.655 70.858 12.0022 68.054 12.0022C65.7748 12.0022 64.2394 11.0036 63.623 10.471L65.0053 8.7709C65.5221 9.24048 66.6897 10.0852 68.1213 10.0852C69.306 10.0852 69.8916 9.66927 69.8916 8.99066C69.8916 6.78948 64.1556 7.95485 64.1556 4.07147C64.1556 2.22247 65.724 0.771484 68.0906 0.771484C71.024 0.771484 71.9195 2.47015 72.1736 3.65485L70.0562 4.17097C70.0047 3.58685 69.4241 2.71998 68.1378 2.71998Z" fill="white"/>
<path d="M91.7411 4.92912L89.5571 5.25912C89.5571 4.24336 88.9408 2.87683 87.2915 2.87683C85.7095 2.87683 84.4611 4.21329 84.4611 6.44668C84.4611 8.98001 85.9772 10.0115 87.6108 10.0115C89.0231 10.0115 89.9751 9.07951 90.4283 8.44314L91.8234 9.90987C91.3438 10.6107 89.9916 12.0602 87.542 12.0602C84.275 12.0602 82.0767 9.92992 82.0767 6.44668C82.0767 3.00926 84.2428 0.828125 87.2579 0.828125C90.5571 0.828125 91.7411 3.15887 91.7411 4.92912Z" fill="white"/>
<path d="M105.421 11.9462C105.421 11.9462 104.988 12.0607 104.203 12.0607C100.853 12.0607 101.769 8.17879 99.2903 8.17879H98.7899V11.9462H96.4241V0.945312H100.156C103.023 0.945312 104.554 2.0799 104.554 4.66191C104.554 6.19593 103.735 7.22816 102.34 7.76074C103.522 8.31121 103.554 10.1616 104.937 10.1616C105.121 10.1616 105.273 10.1258 105.273 10.1258L105.421 11.9462ZM99.8379 6.51448C101.253 6.51448 102.219 5.85949 102.219 4.68052C102.219 3.44857 101.418 2.81292 100.023 2.81292H98.787V6.51448H99.8379Z" fill="white"/>
<path d="M112.217 2.89738V5.42642H116.481V7.27827H112.217V9.997H117.132V11.9476H109.852V0.945312H117.132V2.89738H112.217Z" fill="white"/>
<path d="M128.097 9.59613H124.113L123.347 11.9455H120.931L124.83 0.945312H127.379L131.263 11.9455H128.86L128.097 9.59613ZM127.53 7.813L126.462 4.54308C126.346 4.19519 126.21 3.71057 126.13 3.2961H126.082C126.016 3.71128 125.862 4.1959 125.746 4.56098L124.697 7.81371H127.53V7.813Z" fill="white"/>
<path d="M136.805 2.89738H133.458V0.945312H142.521V2.89738H139.171V11.9469H136.804V2.89738H136.805Z" fill="white"/>
<path d="M146.885 0.945312H149.202V11.9469H146.885V0.945312Z" fill="white"/>
<path d="M158.186 8.32892C158.302 8.69471 158.452 9.18004 158.517 9.59665H158.569C158.653 9.18075 158.786 8.71332 158.903 8.34753L161.215 0.947266H163.62L159.802 11.9482H157.25L153.453 0.947266H155.884L158.186 8.32892Z" fill="white"/>
<path d="M170.211 2.89738V5.42642H174.48V7.27827H170.211V9.997H175.13V11.9476H167.848V0.945312H175.13V2.89738H170.211Z" fill="white"/>
</svg>
