<svg width="80" height="80" viewBox="0 0 80 80" fill="none" xmlns="http://www.w3.org/2000/svg">
<g clip-path="url(#clip0_43_648)">
<path d="M21.1057 23.811C21.3175 23.9718 21.5665 24.0495 21.8135 24.0495C22.1679 24.0495 22.5181 23.8895 22.7488 23.5854C26.2801 18.93 28.3743 13.3915 28.8042 7.57526L29.3052 1.26562C29.3565 0.619971 28.8745 0.0550104 28.2289 0.00372146C27.5826 -0.0474111 27.0181 0.434361 26.967 1.08001L26.4655 7.39606C26.0687 12.7661 24.1372 17.874 20.88 22.1679C20.4886 22.6839 20.5897 23.4196 21.1057 23.811Z" fill="white"/>
<path d="M11.0529 35.7917H1.18473C0.537049 35.7917 0.0119629 36.3168 0.0119629 36.9645C0.0119629 37.6122 0.537049 38.1373 1.18473 38.1373H4.67222V50.2293C4.67222 50.8769 5.19731 51.402 5.84499 51.402C6.49267 51.402 7.01775 50.8769 7.01775 50.2293V38.1373H10.3146C11.9592 41.6809 12.8262 45.5929 12.8262 49.4987V50.2293C12.8262 50.8769 13.3513 51.402 13.999 51.402C14.6467 51.402 15.1718 50.8769 15.1718 50.2293V49.4987C15.1718 48.722 15.1392 47.9452 15.0767 47.1705H51.9495C52.5974 47.1705 53.1223 46.6454 53.1223 45.9978C53.1223 45.3501 52.5974 44.825 51.9495 44.825H14.7912C14.3977 42.4033 13.7035 40.0293 12.7246 37.7814C14.1647 37.139 15.1716 35.6945 15.1716 34.0183C15.1716 32.9677 14.7757 32.0082 14.1258 31.2799C15.9628 30.1878 17.686 28.9045 19.2589 27.4412C19.7332 27 19.7599 26.2579 19.3188 25.7837C18.8775 25.3092 18.1356 25.2826 17.6613 25.7238C15.8673 27.3928 13.865 28.8135 11.7101 29.9524C11.4958 29.9179 11.2763 29.8993 11.0525 29.8993H10.5797C17.5928 21.6702 21.2933 11.7685 21.2933 1.17277C21.2933 0.525086 20.7682 0 20.1205 0C19.4728 0 18.9478 0.525086 18.9478 1.17277C18.9478 11.6335 15.1339 21.3875 7.91859 29.3801L7.4498 29.8994H4.30663L5.07644 28.3132C7.46763 23.3859 8.74516 18.1113 8.87323 12.6362L9.1439 1.21405C9.15922 0.566524 8.6468 0.0290846 7.99928 0.0137605C7.35895 -0.0025019 6.81447 0.511013 6.79899 1.15838L6.52832 12.581C6.40823 17.718 5.20982 22.6666 2.96624 27.2892L1.69949 29.8994H1.18473C0.537049 29.8994 0.0119629 30.4245 0.0119629 31.0722C0.0119629 31.7199 0.537049 32.245 1.18473 32.245H11.0527C12.0305 32.245 12.8261 33.0406 12.8261 34.0183C12.8261 34.9961 12.0306 35.7917 11.0529 35.7917Z" fill="white"/>
<path d="M51.3519 7.56895C51.7024 12.3121 53.1958 16.9686 55.6708 21.0348C55.8916 21.3976 56.2779 21.598 56.6736 21.598C56.8815 21.598 57.0919 21.5428 57.2824 21.427C57.8356 21.0902 58.0112 20.3687 57.6744 19.8154C55.3917 16.0651 54.0144 11.7706 53.6906 7.38975L53.1896 1.08011C53.1384 0.434465 52.576 -0.0480888 51.9277 0.0038256C51.282 0.0551146 50.8001 0.620075 50.8514 1.26572L51.3519 7.56895Z" fill="white"/>
<path d="M78.8154 35.7917H69.1038C68.1261 35.7917 67.3305 34.9961 67.3305 34.0183C67.3305 33.0406 68.1261 32.245 69.1038 32.245H78.8154C79.4633 32.245 79.9882 31.7199 79.9882 31.0722C79.9882 30.4245 79.4633 29.8994 78.8154 29.8994H78.457L77.1903 27.2892C74.9469 22.6664 73.7485 17.718 73.6284 12.5802L73.3577 1.31444C73.3421 0.666913 72.8045 0.157151 72.1569 0.170129C71.5094 0.185766 70.9972 0.723206 71.0128 1.37073L71.2835 12.6358C71.4115 18.1114 72.6889 23.386 75.0803 28.3132L75.8501 29.8994H72.7064L72.2376 29.3801C65.0223 21.3875 61.2086 11.6337 61.2086 1.17277C61.2086 0.525086 60.6837 0 60.0359 0C59.388 0 58.8631 0.525086 58.8631 1.17277C58.8631 11.7685 62.5636 21.6704 69.5767 29.8993H69.1038C68.8795 29.8993 68.6596 29.918 68.4449 29.9526C65.45 28.37 62.7939 26.2754 60.5495 23.7226C60.1219 23.2361 59.3808 23.1882 58.8944 23.6161C58.4081 24.0437 58.3604 24.7848 58.7879 25.2712C60.8854 27.6573 63.316 29.6732 66.0271 31.2836C65.3795 32.0115 64.9849 32.9694 64.9849 34.0182C64.9849 35.6946 65.9923 37.1395 67.433 37.7817C66.4543 40.0296 65.7597 42.4032 65.3666 44.8248H56.9474C56.2996 44.8248 55.7747 45.3499 55.7747 45.9976C55.7747 46.6453 56.2996 47.1704 56.9474 47.1704H65.0811C65.0186 47.945 64.9849 48.7219 64.9849 49.4985V50.2291C64.9849 50.8768 65.5099 51.4019 66.1577 51.4019C66.8055 51.4019 67.3305 50.8768 67.3305 50.2291V49.4985C67.3305 45.5929 68.1975 41.6807 69.8421 38.1371H73.1389V50.2291C73.1389 50.8768 73.6639 51.4019 74.3117 51.4019C74.9595 51.4019 75.4845 50.8768 75.4845 50.2291V38.1371H78.8156C79.4634 38.1371 79.9884 37.612 79.9884 36.9643C79.9884 36.3167 79.4633 35.7917 78.8154 35.7917Z" fill="white"/>
<path d="M74.7485 64.4941V61.4213C74.7485 58.1379 72.0773 55.4668 68.7938 55.4668C66.8372 55.4668 65.0982 56.4158 64.0121 57.8774C62.9259 56.4158 61.187 55.4668 59.2303 55.4668C57.2735 55.4668 55.5345 56.4158 54.4484 57.8774C53.3623 56.4158 51.6233 55.4668 49.6666 55.4668C47.71 55.4668 45.971 56.4158 44.8849 57.8774C43.7987 56.4158 42.0598 55.4668 40.103 55.4668C38.1462 55.4668 36.4072 56.4158 35.3212 57.8774C34.2351 56.4158 32.4963 55.4668 30.5395 55.4668C28.5827 55.4668 26.8437 56.4158 25.7575 57.8774C24.6714 56.4158 22.9326 55.4668 20.9758 55.4668C19.019 55.4668 17.28 56.4158 16.1939 57.8774C15.1077 56.4158 13.3689 55.4668 11.4121 55.4668C8.12868 55.4668 5.45744 58.138 5.45744 61.4213V64.451C2.39245 65.4364 0.16748 68.3139 0.16748 71.7024V78.8275C0.16748 79.4752 0.692567 80.0003 1.34025 80.0003C1.98793 80.0003 2.51301 79.4752 2.51301 78.8275V71.7024C2.51301 68.7963 4.87746 66.4318 7.78358 66.4318C10.6897 66.4318 13.0541 68.7963 13.0541 71.7024V78.8275C13.0541 79.4752 13.5792 80.0003 14.2269 80.0003C14.8746 80.0003 15.3997 79.4752 15.3997 78.8275V71.7024C15.3997 68.7963 17.7641 66.4318 20.6702 66.4318C23.5764 66.4318 25.9408 68.7963 25.9408 71.7024V78.8275C25.9408 79.4752 26.4659 80.0003 27.1136 80.0003C27.7613 80.0003 28.2863 79.4752 28.2863 78.8275V71.7024C28.2863 68.7963 30.6508 66.4318 33.5569 66.4318C36.463 66.4318 38.8275 68.7963 38.8275 71.7024V71.7415V78.8275C38.8275 79.4752 39.3526 80.0003 40.0002 80.0003C40.6481 80.0003 41.173 79.4752 41.173 78.8275V71.7415C41.173 68.8137 43.5548 66.4318 46.4827 66.4318C49.4105 66.4318 51.7923 68.8137 51.7923 71.7415V78.8275C51.7923 79.4752 52.3172 80.0003 52.9651 80.0003C53.6129 80.0003 54.1378 79.4752 54.1378 78.8275V71.7415V71.7024C54.1378 68.7963 56.5021 66.4318 59.4084 66.4318C62.3147 66.4318 64.679 68.7963 64.679 71.7024V78.8275C64.679 79.4752 65.2039 80.0003 65.8517 80.0003C66.4996 80.0003 67.0245 79.4752 67.0245 78.8275V71.7024C67.0245 68.7963 69.3888 66.4318 72.2951 66.4318C75.2013 66.4318 77.5656 68.7963 77.5656 71.7024V78.8275C77.5656 79.4752 78.0906 80.0003 78.7384 80.0003C79.3862 80.0003 79.9112 79.4752 79.9112 78.8275V71.7024C79.9112 68.3613 77.7475 65.5179 74.7485 64.4941ZM7.80312 64.0869V61.4213C7.80312 59.4312 9.42217 57.8123 11.4123 57.8123C13.4024 57.8123 15.0213 59.4314 15.0213 61.4213V66.6001C14.7271 66.9253 14.4619 67.277 14.2268 67.6493C12.8801 65.516 10.5055 64.0938 7.80312 64.0869ZM20.6702 64.0863C19.4873 64.0863 18.3666 64.3575 17.367 64.8408V61.4213C17.367 59.4312 18.986 57.8123 20.9761 57.8123C22.9662 57.8123 24.5851 59.4314 24.5851 61.4213V65.1725C23.4402 64.4835 22.1007 64.0863 20.6702 64.0863ZM27.1136 67.6493C27.0545 67.5557 26.9936 67.4631 26.9305 67.3722V61.4213C26.9305 59.4312 28.5495 57.8123 30.5396 57.8123C32.5297 57.8123 34.1486 59.4314 34.1486 61.4213V64.1116C33.9531 64.0965 33.7563 64.0865 33.5569 64.0865C30.8463 64.0863 28.4635 65.5108 27.1136 67.6493ZM40.009 67.6632C39.1771 66.3391 37.9504 65.2874 36.494 64.6761V61.4213C36.494 59.4312 38.113 57.8123 40.1031 57.8123C42.0932 57.8123 43.7121 59.4314 43.7121 61.4213V64.6073C42.1758 65.2061 40.8795 66.2866 40.009 67.6632ZM46.4827 64.0863C46.34 64.0863 46.1984 64.091 46.0577 64.0987V61.4212C46.0577 59.4311 47.6767 57.8122 49.6666 57.8122C51.6566 57.8122 53.2756 59.4312 53.2756 61.4212V67.1929C53.1632 67.3452 53.0572 67.5023 52.9562 67.6631C51.5987 65.5162 49.2052 64.0863 46.4827 64.0863ZM55.6212 65.099V61.4213C55.6212 59.4312 57.2402 57.8123 59.2303 57.8123C61.2204 57.8123 62.8393 59.4314 62.8393 61.4213V64.9063C61.8074 64.3833 60.6422 64.0865 59.4084 64.0865C58.0302 64.0863 56.7376 64.4561 55.6212 65.099ZM65.8517 67.6493C65.6514 67.3321 65.4285 67.0307 65.1848 66.7472V61.4213C65.1848 59.4312 66.8039 57.8123 68.7938 57.8123C70.7838 57.8123 72.403 59.4314 72.403 61.4213V64.0891C72.3669 64.0887 72.3312 64.0863 72.2951 64.0863C69.5846 64.0863 67.2018 65.5108 65.8517 67.6493Z" fill="white"/>
</g>
<defs>
<clipPath id="clip0_43_648">
<rect width="80" height="80" fill="white"/>
</clipPath>
</defs>
</svg>
